<?xml version="1.0" encoding="UTF-8"?>
<svg version="1.1" xmlns="http://www.w3.org/2000/svg" width="720" height="720">
<path d="M0 0 C1.17912964 -0.00095673 2.35825928 -0.00191345 3.57312012 -0.00289917 C6.05053766 -0.00357557 8.52795702 -0.00175924 11.00537109 0.00244141 C14.77054879 0.00779728 18.53560721 0.0024779 22.30078125 -0.00390625 C24.72135443 -0.00324537 27.14192753 -0.00196401 29.5625 0 C31.23016418 -0.00303635 31.23016418 -0.00303635 32.93151855 -0.00613403 C51.11099085 0.04768293 51.11099085 0.04768293 55.28125 2.1328125 C56.74125808 2.32813912 58.20778089 2.47620245 59.67578125 2.59765625 C60.98579102 2.71463867 60.98579102 2.71463867 62.32226562 2.83398438 C64.1579593 2.99051639 65.99389823 3.14420047 67.83007812 3.29492188 C72.37855307 3.70598905 76.07303857 4.26832025 80.28125 6.1328125 C82.9428687 6.57830607 82.9428687 6.57830607 85.59375 6.7578125 C86.91826172 6.86996094 86.91826172 6.86996094 88.26953125 6.984375 C89.26533203 7.05785156 89.26533203 7.05785156 90.28125 7.1328125 C90.28125 7.7928125 90.28125 8.4528125 90.28125 9.1328125 C93.25125 9.4628125 96.22125 9.7928125 99.28125 10.1328125 C99.28125 10.7928125 99.28125 11.4528125 99.28125 12.1328125 C100.4775 12.0915625 101.67375 12.0503125 102.90625 12.0078125 C106.74785282 11.87534344 109.67284621 12.83658978 113.28125 14.1328125 C114.56924048 14.5657028 115.85836205 14.99523838 117.1484375 15.421875 C120.859375 16.65885417 124.5703125 17.89583333 128.28125 19.1328125 C128.28125 19.7928125 128.28125 20.4528125 128.28125 21.1328125 C131.25125 21.4628125 134.22125 21.7928125 137.28125 22.1328125 C137.28125 22.7928125 137.28125 23.4528125 137.28125 24.1328125 C138.126875 24.2359375 138.9725 24.3390625 139.84375 24.4453125 C143.69567701 25.2156979 146.72200031 26.49555764 150.28125 28.1328125 C150.28125 28.7928125 150.28125 29.4528125 150.28125 30.1328125 C152.26125 30.4628125 154.24125 30.7928125 156.28125 31.1328125 C156.28125 31.7928125 156.28125 32.4528125 156.28125 33.1328125 C158.26125 33.4628125 160.24125 33.7928125 162.28125 34.1328125 C162.28125 34.7928125 162.28125 35.4528125 162.28125 36.1328125 C164.26125 36.4628125 166.24125 36.7928125 168.28125 37.1328125 C168.28125 37.7928125 168.28125 38.4528125 168.28125 39.1328125 C170.26125 39.4628125 172.24125 39.7928125 174.28125 40.1328125 C174.28125 40.7928125 174.28125 41.4528125 174.28125 42.1328125 C174.961875 42.1946875 175.6425 42.2565625 176.34375 42.3203125 C179.76768133 43.26735734 181.85955045 44.81818661 184.6328125 46.9765625 C186.39436936 48.3293435 186.39436936 48.3293435 189.28125 49.1328125 C189.28125 49.7928125 189.28125 50.4528125 189.28125 51.1328125 C190.93125 51.4628125 192.58125 51.7928125 194.28125 52.1328125 C194.28125 52.7928125 194.28125 53.4528125 194.28125 54.1328125 C195.60125 54.4628125 196.92125 54.7928125 198.28125 55.1328125 C198.28125 55.7928125 198.28125 56.4528125 198.28125 57.1328125 C198.86100586 57.24310791 199.44076172 57.35340332 200.03808594 57.46704102 C202.53940468 58.20943285 204.08600226 59.2279979 206.171875 60.78515625 C207.23535156 61.57889648 207.23535156 61.57889648 208.3203125 62.38867188 C209.04992187 62.94361328 209.77953125 63.49855469 210.53125 64.0703125 C211.27632812 64.62138672 212.02140625 65.17246094 212.7890625 65.74023438 C213.84480469 66.5359082 213.84480469 66.5359082 214.921875 67.34765625 C215.56672852 67.83355225 216.21158203 68.31944824 216.87597656 68.82006836 C217.3397168 69.25327393 217.80345703 69.68647949 218.28125 70.1328125 C218.28125 70.7928125 218.28125 71.4528125 218.28125 72.1328125 C219.60125 72.4628125 220.92125 72.7928125 222.28125 73.1328125 C222.28125 73.7928125 222.28125 74.4528125 222.28125 75.1328125 C223.209375 75.596875 223.209375 75.596875 224.15625 76.0703125 C225.53125 76.7578125 226.90625 77.4453125 228.28125 78.1328125 C228.28125 79.1228125 228.28125 80.1128125 228.28125 81.1328125 C229.02375 81.1946875 229.76625 81.2565625 230.53125 81.3203125 C234.15142367 82.38990927 235.05508898 84.14140863 237.28125 87.1328125 C238.92764965 88.49109221 240.59420807 89.82535501 242.28125 91.1328125 C244.59375 93.2578125 244.59375 93.2578125 246.28125 95.1328125 C246.28125 95.7928125 246.28125 96.4528125 246.28125 97.1328125 C246.94125 97.1328125 247.60125 97.1328125 248.28125 97.1328125 C249.8671875 98.7421875 249.8671875 98.7421875 251.65625 100.8828125 C253.61882727 103.20184952 255.5400795 105.38500534 257.71875 107.5078125 C259.28125 109.1328125 259.28125 109.1328125 259.28125 111.1328125 C259.94125 111.1328125 260.60125 111.1328125 261.28125 111.1328125 C261.61125 112.1228125 261.94125 113.1128125 262.28125 114.1328125 C263.044375 114.7309375 263.8075 115.3290625 264.59375 115.9453125 C267.58723005 118.38186603 269.33467619 120.81642749 271.28125 124.1328125 C271.28125 124.7928125 271.28125 125.4528125 271.28125 126.1328125 C272.27125 126.4628125 273.26125 126.7928125 274.28125 127.1328125 C274.28125 128.1228125 274.28125 129.1128125 274.28125 130.1328125 C275.27125 130.4628125 276.26125 130.7928125 277.28125 131.1328125 C277.28125 131.7928125 277.28125 132.4528125 277.28125 133.1328125 C277.94125 133.1328125 278.60125 133.1328125 279.28125 133.1328125 C283.28125 139.8828125 283.28125 139.8828125 283.28125 142.1328125 C283.94125 142.1328125 284.60125 142.1328125 285.28125 142.1328125 C285.61125 143.7828125 285.94125 145.4328125 286.28125 147.1328125 C286.94125 147.1328125 287.60125 147.1328125 288.28125 147.1328125 C288.61125 148.1228125 288.94125 149.1128125 289.28125 150.1328125 C289.94125 150.4628125 290.60125 150.7928125 291.28125 151.1328125 C291.90625 154.1953125 291.90625 154.1953125 292.28125 157.1328125 C292.94125 157.1328125 293.60125 157.1328125 294.28125 157.1328125 C295.26878064 158.85721615 296.24593806 160.58756276 297.21875 162.3203125 C297.76402344 163.28324219 298.30929687 164.24617187 298.87109375 165.23828125 C300.18704333 167.93944092 300.85426887 170.17637351 301.28125 173.1328125 C301.94125 173.1328125 302.60125 173.1328125 303.28125 173.1328125 C303.61125 174.7828125 303.94125 176.4328125 304.28125 178.1328125 C304.94125 178.1328125 305.60125 178.1328125 306.28125 178.1328125 C306.61125 180.4428125 306.94125 182.7528125 307.28125 185.1328125 C307.94125 185.1328125 308.60125 185.1328125 309.28125 185.1328125 C309.54679688 185.91527344 309.81234375 186.69773438 310.0859375 187.50390625 C310.43914063 188.51582031 310.79234375 189.52773437 311.15625 190.5703125 C311.50429688 191.57964844 311.85234375 192.58898437 312.2109375 193.62890625 C313.02180093 196.27253001 313.02180093 196.27253001 315.28125 197.1328125 C315.6953125 199.19921875 315.6953125 199.19921875 315.90625 201.6953125 C315.98101563 202.52160156 316.05578125 203.34789062 316.1328125 204.19921875 C316.18179688 204.83730469 316.23078125 205.47539062 316.28125 206.1328125 C316.94125 206.1328125 317.60125 206.1328125 318.28125 206.1328125 C319.820471 210.01432634 321.16879458 213.44558494 321.84375 217.5703125 C321.988125 218.4159375 322.1325 219.2615625 322.28125 220.1328125 C322.94125 220.4628125 323.60125 220.7928125 324.28125 221.1328125 C324.6953125 223.63671875 324.6953125 223.63671875 324.90625 226.6953125 C324.98101563 227.70722656 325.05578125 228.71914063 325.1328125 229.76171875 C325.18179688 230.54417969 325.23078125 231.32664062 325.28125 232.1328125 C325.94125 232.1328125 326.60125 232.1328125 327.28125 232.1328125 C327.61125 235.4328125 327.94125 238.7328125 328.28125 242.1328125 C328.94125 242.1328125 329.60125 242.1328125 330.28125 242.1328125 C330.40242187 242.99003906 330.52359375 243.84726562 330.6484375 244.73046875 C331.67992322 251.88032275 331.67992322 251.88032275 333.40625 258.8828125 C334.52271867 263.02969611 334.45535106 266.86733654 334.28125 271.1328125 C334.94125 271.1328125 335.60125 271.1328125 336.28125 271.1328125 C336.36427368 272.21550415 336.36427368 272.21550415 336.44897461 273.32006836 C336.7008654 276.57053418 336.95971301 279.82040871 337.21875 283.0703125 C337.30576172 284.20662109 337.39277344 285.34292969 337.48242188 286.51367188 C337.61293945 288.13305664 337.61293945 288.13305664 337.74609375 289.78515625 C337.824646 290.78538818 337.90319824 291.78562012 337.98413086 292.81616211 C338.03597794 295.09134365 338.03597794 295.09134365 339.28125 296.1328125 C339.3748419 297.85146659 339.39869611 299.57396994 339.39477539 301.29516602 C339.39469986 302.39623184 339.39462433 303.49729767 339.39454651 304.63172913 C339.38938522 305.8296257 339.38422394 307.02752228 339.37890625 308.26171875 C339.3774913 309.48108627 339.37607635 310.7004538 339.37461853 311.95677185 C339.36899967 315.8696432 339.35644396 319.78245831 339.34375 323.6953125 C339.33873743 326.34049397 339.3341741 328.98567633 339.33007812 331.63085938 C339.31902411 338.13152976 339.30226764 344.63216711 339.28125 351.1328125 C338.62125 351.1328125 337.96125 351.1328125 337.28125 351.1328125 C337.29285156 352.01582031 337.30445313 352.89882813 337.31640625 353.80859375 C337.4293719 368.83302512 337.4293719 368.83302512 336.28125 376.1328125 C335.95125 376.4628125 335.62125 376.7928125 335.28125 377.1328125 C334.83237921 380.19192354 334.46381669 383.25015288 334.11914062 386.32226562 C333.61298758 390.4908269 332.67657597 394.18219077 331.28125 398.1328125 C330.90593554 400.45976214 330.56207798 402.79257935 330.28125 405.1328125 C329.62125 405.1328125 328.96125 405.1328125 328.28125 405.1328125 C328.23226562 405.78507812 328.18328125 406.43734375 328.1328125 407.109375 C327.70661713 412.09145191 327.03569715 416.41773578 325.28125 421.1328125 C324.92018903 422.79369295 324.57662827 424.45900231 324.28125 426.1328125 C323.62125 426.1328125 322.96125 426.1328125 322.28125 426.1328125 C322.19875 427.3084375 322.11625 428.4840625 322.03125 429.6953125 C321.57234261 433.48628661 320.33541136 436.01250265 318.26953125 439.2578125 C316.48220644 442.64878447 315.92741952 446.38332885 315.28125 450.1328125 C314.62125 450.1328125 313.96125 450.1328125 313.28125 450.1328125 C312.95125 452.1128125 312.62125 454.0928125 312.28125 456.1328125 C311.62125 456.1328125 310.96125 456.1328125 310.28125 456.1328125 C310.28125 457.7828125 310.28125 459.4328125 310.28125 461.1328125 C309.29125 461.4628125 308.30125 461.7928125 307.28125 462.1328125 C307.1575 463.4321875 307.03375 464.7315625 306.90625 466.0703125 C306.6953125 468.28515625 306.6953125 468.28515625 306.28125 470.1328125 C305.29125 470.6278125 305.29125 470.6278125 304.28125 471.1328125 C303.95125 472.1228125 303.62125 473.1128125 303.28125 474.1328125 C302.62125 474.1328125 301.96125 474.1328125 301.28125 474.1328125 C301.28125 475.7828125 301.28125 477.4328125 301.28125 479.1328125 C300.29125 479.4628125 299.30125 479.7928125 298.28125 480.1328125 C298.178125 480.8340625 298.075 481.5353125 297.96875 482.2578125 C297.18765997 485.52418897 295.86066257 488.1799977 294.28125 491.1328125 C293.62125 491.1328125 292.96125 491.1328125 292.28125 491.1328125 C291.95125 492.7828125 291.62125 494.4328125 291.28125 496.1328125 C290.62125 496.1328125 289.96125 496.1328125 289.28125 496.1328125 C288.95125 497.4528125 288.62125 498.7728125 288.28125 500.1328125 C287.62125 500.1328125 286.96125 500.1328125 286.28125 500.1328125 C285.95125 501.4528125 285.62125 502.7728125 285.28125 504.1328125 C284.62125 504.1328125 283.96125 504.1328125 283.28125 504.1328125 C282.95125 505.7828125 282.62125 507.4328125 282.28125 509.1328125 C281.62125 509.1328125 280.96125 509.1328125 280.28125 509.1328125 C279.95125 510.4528125 279.62125 511.7728125 279.28125 513.1328125 C278.62125 513.1328125 277.96125 513.1328125 277.28125 513.1328125 C276.95125 514.7828125 276.62125 516.4328125 276.28125 518.1328125 C275.62125 518.1328125 274.96125 518.1328125 274.28125 518.1328125 C274.178125 518.7309375 274.075 519.3290625 273.96875 519.9453125 C273.18300967 522.44539536 272.31206147 523.50816332 270.28125 525.1328125 C269.62125 525.1328125 268.96125 525.1328125 268.28125 525.1328125 C268.18070313 525.71546875 268.08015625 526.298125 267.9765625 526.8984375 C267.15349498 529.54335111 266.02761859 530.85199995 264.15625 532.8828125 C263.52460937 533.57890625 262.89296875 534.275 262.2421875 534.9921875 C261.27152344 536.05179688 261.27152344 536.05179688 260.28125 537.1328125 C259.11093775 538.46294713 257.94418669 539.79622463 256.78125 541.1328125 C256.20246094 541.79152344 255.62367188 542.45023438 255.02734375 543.12890625 C253.86257746 544.46565145 252.7088667 545.81211022 251.56640625 547.16796875 C246.51781321 553.10951022 240.8637956 558.01982065 234.84375 562.9453125 C232.24893028 564.87252643 232.24893028 564.87252643 231.28125 567.1328125 C230.29125 567.4628125 229.30125 567.7928125 228.28125 568.1328125 C227.62125 569.1228125 226.96125 570.1128125 226.28125 571.1328125 C225.62125 571.1328125 224.96125 571.1328125 224.28125 571.1328125 C224.28125 571.7928125 224.28125 572.4528125 224.28125 573.1328125 C218.86948529 577.1328125 218.86948529 577.1328125 216.28125 577.1328125 C215.95125 578.1228125 215.62125 579.1128125 215.28125 580.1328125 C214.62125 580.1328125 213.96125 580.1328125 213.28125 580.1328125 C213.28125 580.7928125 213.28125 581.4528125 213.28125 582.1328125 C212.29125 582.4628125 211.30125 582.7928125 210.28125 583.1328125 C209.53875 583.90625 209.53875 583.90625 208.78125 584.6953125 C207.28125 586.1328125 207.28125 586.1328125 204.28125 586.1328125 C203.95125 587.1228125 203.62125 588.1128125 203.28125 589.1328125 C201.3203125 590.73828125 201.3203125 590.73828125 198.90625 592.3203125 C198.11476563 592.85011719 197.32328125 593.37992188 196.5078125 593.92578125 C194.28125 595.1328125 194.28125 595.1328125 191.28125 595.1328125 C191.28125 595.7928125 191.28125 596.4528125 191.28125 597.1328125 C189.63125 597.4628125 187.98125 597.7928125 186.28125 598.1328125 C186.28125 598.7928125 186.28125 599.4528125 186.28125 600.1328125 C184.96125 600.4628125 183.64125 600.7928125 182.28125 601.1328125 C182.28125 601.7928125 182.28125 602.4528125 182.28125 603.1328125 C180.8249955 603.80400799 179.36617133 604.46963057 177.90625 605.1328125 C177.09414063 605.5040625 176.28203125 605.8753125 175.4453125 606.2578125 C173.28125 607.1328125 173.28125 607.1328125 171.28125 607.1328125 C171.28125 607.7928125 171.28125 608.4528125 171.28125 609.1328125 C169.30125 609.4628125 167.32125 609.7928125 165.28125 610.1328125 C165.28125 610.7928125 165.28125 611.4528125 165.28125 612.1328125 C163.30125 612.4628125 161.32125 612.7928125 159.28125 613.1328125 C159.28125 613.7928125 159.28125 614.4528125 159.28125 615.1328125 C157.30125 615.4628125 155.32125 615.7928125 153.28125 616.1328125 C153.28125 616.7928125 153.28125 617.4528125 153.28125 618.1328125 C151.67975114 618.80586268 150.07493971 619.47103477 148.46875 620.1328125 C147.57542969 620.5040625 146.68210937 620.8753125 145.76171875 621.2578125 C143.28125 622.1328125 143.28125 622.1328125 140.28125 622.1328125 C140.28125 622.7928125 140.28125 623.4528125 140.28125 624.1328125 C137.64125 624.4628125 135.00125 624.7928125 132.28125 625.1328125 C132.28125 625.7928125 132.28125 626.4528125 132.28125 627.1328125 C113.59089467 634.1328125 113.59089467 634.1328125 107.28125 634.1328125 C107.28125 634.7928125 107.28125 635.4528125 107.28125 636.1328125 C102.66125 636.4628125 98.04125 636.7928125 93.28125 637.1328125 C93.28125 637.7928125 93.28125 638.4528125 93.28125 639.1328125 C92.57097656 639.26558594 91.86070312 639.39835938 91.12890625 639.53515625 C90.20980469 639.71175781 89.29070312 639.88835938 88.34375 640.0703125 C87.42722656 640.24433594 86.51070313 640.41835938 85.56640625 640.59765625 C83.32835156 640.90996238 83.32835156 640.90996238 82.28125 642.1328125 C78.66503521 642.71140687 75.03823478 643.1641693 71.40625 643.6328125 C68.42147705 643.79708218 68.42147705 643.79708218 67.28125 645.1328125 C59.12028979 646.40054404 50.82726765 646.25541117 42.59375 646.1953125 C41.40330078 646.19080078 40.21285156 646.18628906 38.98632812 646.18164062 C36.08458064 646.16998702 33.18294374 646.15362809 30.28125 646.1328125 C30.28125 646.7928125 30.28125 647.4528125 30.28125 648.1328125 C20.05125 648.1328125 9.82125 648.1328125 -0.71875 648.1328125 C-0.71875 647.4728125 -0.71875 646.8128125 -0.71875 646.1328125 C-1.41846924 646.13804932 -2.11818848 646.14328613 -2.83911133 646.14868164 C-6.06981475 646.16972076 -9.30050366 646.18255716 -12.53125 646.1953125 C-13.63146484 646.20369141 -14.73167969 646.21207031 -15.86523438 646.22070312 C-25.1129288 646.24798246 -33.93147452 646.18925614 -42.71875 643.1328125 C-45.09817389 642.80889093 -47.47013588 642.57532857 -49.86328125 642.37890625 C-51.71875 642.1328125 -51.71875 642.1328125 -52.71875 641.1328125 C-54.56474688 640.73827027 -56.42100822 640.39104384 -58.28125 640.0703125 C-59.29316406 639.89371094 -60.30507813 639.71710937 -61.34765625 639.53515625 C-62.13011719 639.40238281 -62.91257812 639.26960937 -63.71875 639.1328125 C-63.71875 638.4728125 -63.71875 637.8128125 -63.71875 637.1328125 C-68.00875 636.8028125 -72.29875 636.4728125 -76.71875 636.1328125 C-76.71875 635.4728125 -76.71875 634.8128125 -76.71875 634.1328125 C-77.894375 634.0090625 -79.07 633.8853125 -80.28125 633.7578125 C-85.28750364 633.13646896 -89.94128729 631.72530007 -94.71875 630.1328125 C-94.71875 629.4728125 -94.71875 628.8128125 -94.71875 628.1328125 C-95.70875 628.0296875 -96.69875 627.9265625 -97.71875 627.8203125 C-102.00172163 627.22472544 -105.71871371 625.74686223 -109.71875 624.1328125 C-109.71875 623.4728125 -109.71875 622.8128125 -109.71875 622.1328125 C-110.95625 621.978125 -110.95625 621.978125 -112.21875 621.8203125 C-116.31164012 621.01635194 -119.84415225 619.66929092 -123.71875 618.1328125 C-123.71875 617.4728125 -123.71875 616.8128125 -123.71875 616.1328125 C-125.69875 615.8028125 -127.67875 615.4728125 -129.71875 615.1328125 C-129.71875 614.4728125 -129.71875 613.8128125 -129.71875 613.1328125 C-130.7396875 612.978125 -130.7396875 612.978125 -131.78125 612.8203125 C-135.34790989 611.98556231 -138.38097194 610.63808496 -141.71875 609.1328125 C-141.71875 608.4728125 -141.71875 607.8128125 -141.71875 607.1328125 C-142.440625 606.8440625 -143.1625 606.5553125 -143.90625 606.2578125 C-146.51041667 605.21614583 -149.11458333 604.17447917 -151.71875 603.1328125 C-151.71875 602.4728125 -151.71875 601.8128125 -151.71875 601.1328125 C-153.36875 600.8028125 -155.01875 600.4728125 -156.71875 600.1328125 C-156.71875 599.4728125 -156.71875 598.8128125 -156.71875 598.1328125 C-158.03875 597.8028125 -159.35875 597.4728125 -160.71875 597.1328125 C-160.71875 596.4728125 -160.71875 595.8128125 -160.71875 595.1328125 C-161.688125 595.0090625 -162.6575 594.8853125 -163.65625 594.7578125 C-164.666875 594.5515625 -165.6775 594.3453125 -166.71875 594.1328125 C-167.04875 593.4728125 -167.37875 592.8128125 -167.71875 592.1328125 C-168.70875 591.8028125 -169.69875 591.4728125 -170.71875 591.1328125 C-170.71875 590.4728125 -170.71875 589.8128125 -170.71875 589.1328125 C-172.03875 588.8028125 -173.35875 588.4728125 -174.71875 588.1328125 C-174.71875 587.4728125 -174.71875 586.8128125 -174.71875 586.1328125 C-176.03875 585.8028125 -177.35875 585.4728125 -178.71875 585.1328125 C-178.71875 584.4728125 -178.71875 583.8128125 -178.71875 583.1328125 C-180.03875 582.8028125 -181.35875 582.4728125 -182.71875 582.1328125 C-182.71875 581.4728125 -182.71875 580.8128125 -182.71875 580.1328125 C-183.70875 579.8028125 -184.69875 579.4728125 -185.71875 579.1328125 C-185.71875 578.4728125 -185.71875 577.8128125 -185.71875 577.1328125 C-186.481875 577.0296875 -187.245 576.9265625 -188.03125 576.8203125 C-190.90291484 576.08570056 -191.94917094 575.461206 -193.71875 573.1328125 C-193.71875 572.4728125 -193.71875 571.8128125 -193.71875 571.1328125 C-194.70875 571.1328125 -195.69875 571.1328125 -196.71875 571.1328125 C-197.21375 569.6478125 -197.21375 569.6478125 -197.71875 568.1328125 C-198.70875 567.8028125 -199.69875 567.4728125 -200.71875 567.1328125 C-200.71875 566.4728125 -200.71875 565.8128125 -200.71875 565.1328125 C-201.46125 564.9059375 -202.20375 564.6790625 -202.96875 564.4453125 C-206.290311 562.86002202 -207.49062051 561.03613275 -209.71875 558.1328125 C-210.7823574 557.21364561 -211.86652652 556.31779853 -212.96875 555.4453125 C-213.87625 554.6821875 -214.78375 553.9190625 -215.71875 553.1328125 C-215.71875 552.4728125 -215.71875 551.8128125 -215.71875 551.1328125 C-216.37875 551.1328125 -217.03875 551.1328125 -217.71875 551.1328125 C-219.08051922 549.48929793 -220.40837066 547.81758594 -221.71875 546.1328125 C-222.62625 545.2459375 -223.53375 544.3590625 -224.46875 543.4453125 C-226.71875 541.1328125 -226.71875 541.1328125 -226.71875 539.1328125 C-228.03875 538.4728125 -229.35875 537.8128125 -230.71875 537.1328125 C-230.71875 536.1428125 -230.71875 535.1528125 -230.71875 534.1328125 C-231.70875 533.8028125 -232.69875 533.4728125 -233.71875 533.1328125 C-233.71875 532.4728125 -233.71875 531.8128125 -233.71875 531.1328125 C-234.37875 531.1328125 -235.03875 531.1328125 -235.71875 531.1328125 C-239.71875 525.72104779 -239.71875 525.72104779 -239.71875 523.1328125 C-240.70875 522.8028125 -241.69875 522.4728125 -242.71875 522.1328125 C-242.71875 521.4728125 -242.71875 520.8128125 -242.71875 520.1328125 C-243.37875 520.1328125 -244.03875 520.1328125 -244.71875 520.1328125 C-245.04875 518.8128125 -245.37875 517.4928125 -245.71875 516.1328125 C-246.37875 516.1328125 -247.03875 516.1328125 -247.71875 516.1328125 C-248.21375 514.6478125 -248.21375 514.6478125 -248.71875 513.1328125 C-249.37875 512.8028125 -250.03875 512.4728125 -250.71875 512.1328125 C-251.34375 509.5703125 -251.34375 509.5703125 -251.71875 507.1328125 C-252.37875 507.1328125 -253.03875 507.1328125 -253.71875 507.1328125 C-254.21375 505.6478125 -254.21375 505.6478125 -254.71875 504.1328125 C-255.37875 503.8028125 -256.03875 503.4728125 -256.71875 503.1328125 C-257.34375 500.5703125 -257.34375 500.5703125 -257.71875 498.1328125 C-258.37875 498.1328125 -259.03875 498.1328125 -259.71875 498.1328125 C-263.71875 491.5078125 -263.71875 491.5078125 -263.71875 488.1328125 C-264.37875 488.1328125 -265.03875 488.1328125 -265.71875 488.1328125 C-266.04875 486.4828125 -266.37875 484.8328125 -266.71875 483.1328125 C-267.37875 483.1328125 -268.03875 483.1328125 -268.71875 483.1328125 C-269.04875 481.4828125 -269.37875 479.8328125 -269.71875 478.1328125 C-270.37875 478.1328125 -271.03875 478.1328125 -271.71875 478.1328125 C-272.21375 474.6678125 -272.21375 474.6678125 -272.71875 471.1328125 C-273.70875 470.8028125 -274.69875 470.4728125 -275.71875 470.1328125 C-275.71875 468.4828125 -275.71875 466.8328125 -275.71875 465.1328125 C-276.37875 465.1328125 -277.03875 465.1328125 -277.71875 465.1328125 C-280.96474784 460.97793527 -281.28701373 457.22730048 -281.71875 452.1328125 C-282.37875 452.1328125 -283.03875 452.1328125 -283.71875 452.1328125 C-285.94531164 447.38926814 -287.18023032 443.41030535 -287.71875 438.1328125 C-288.37875 438.1328125 -289.03875 438.1328125 -289.71875 438.1328125 C-290.04875 434.8328125 -290.37875 431.5328125 -290.71875 428.1328125 C-291.37875 428.1328125 -292.03875 428.1328125 -292.71875 428.1328125 C-293.39239661 426.05172565 -294.05741798 423.9678454 -294.71875 421.8828125 C-295.09 420.72265625 -295.46125 419.5625 -295.84375 418.3671875 C-296.71875 415.1328125 -296.71875 415.1328125 -296.71875 411.1328125 C-297.37875 411.1328125 -298.03875 411.1328125 -298.71875 411.1328125 C-298.90050781 409.93785156 -298.90050781 409.93785156 -299.0859375 408.71875 C-300.07211587 402.2372395 -300.07211587 402.2372395 -301.84375 395.9453125 C-303.07210818 391.99701835 -302.88282399 388.23466235 -302.71875 384.1328125 C-303.37875 384.1328125 -304.03875 384.1328125 -304.71875 384.1328125 C-305.7900328 378.10684677 -305.81820415 372.24371733 -305.71875 366.1328125 C-306.37875 366.1328125 -307.03875 366.1328125 -307.71875 366.1328125 C-308.47247454 357.00216224 -308.86796296 347.94949703 -308.8515625 338.7890625 C-308.85251923 337.57690063 -308.85347595 336.36473877 -308.85446167 335.11584473 C-308.85513659 332.57478788 -308.85333082 330.03372923 -308.84912109 327.49267578 C-308.84376308 323.64221255 -308.84908975 319.79186593 -308.85546875 315.94140625 C-308.85480785 313.45312475 -308.85352643 310.96484332 -308.8515625 308.4765625 C-308.85358673 307.34593384 -308.85561096 306.21530518 -308.85769653 305.05041504 C-308.83464345 297.04267216 -308.37747117 289.11258794 -307.71875 281.1328125 C-307.05875 281.1328125 -306.39875 281.1328125 -305.71875 281.1328125 C-305.73035156 280.50375 -305.74195313 279.8746875 -305.75390625 279.2265625 C-305.81158097 273.755703 -305.60296482 268.53634751 -304.71875 263.1328125 C-304.38875 262.8028125 -304.05875 262.4728125 -303.71875 262.1328125 C-303.17376857 258.97283616 -302.75291889 255.80163823 -302.31640625 252.625 C-301.69878427 249.01615002 -300.75889787 245.6418828 -299.71875 242.1328125 C-298.98542939 239.32648308 -298.28934899 236.51120028 -297.59375 233.6953125 C-297.32111328 232.59799805 -297.32111328 232.59799805 -297.04296875 231.47851562 C-296.60047226 229.69688501 -296.15945512 227.91488708 -295.71875 226.1328125 C-295.05875 226.1328125 -294.39875 226.1328125 -293.71875 226.1328125 C-293.71875 224.4828125 -293.71875 222.8328125 -293.71875 221.1328125 C-292.72875 220.8028125 -291.73875 220.4728125 -290.71875 220.1328125 C-290.38875 216.5028125 -290.05875 212.8728125 -289.71875 209.1328125 C-289.05875 209.1328125 -288.39875 209.1328125 -287.71875 209.1328125 C-287.38875 206.8228125 -287.05875 204.5128125 -286.71875 202.1328125 C-286.05875 202.1328125 -285.39875 202.1328125 -284.71875 202.1328125 C-284.71875 200.4828125 -284.71875 198.8328125 -284.71875 197.1328125 C-283.72875 196.8028125 -282.73875 196.4728125 -281.71875 196.1328125 C-281.38875 193.1628125 -281.05875 190.1928125 -280.71875 187.1328125 C-280.05875 187.1328125 -279.39875 187.1328125 -278.71875 187.1328125 C-278.38875 185.4828125 -278.05875 183.8328125 -277.71875 182.1328125 C-277.05875 182.1328125 -276.39875 182.1328125 -275.71875 182.1328125 C-275.22375 179.1628125 -275.22375 179.1628125 -274.71875 176.1328125 C-274.05875 176.1328125 -273.39875 176.1328125 -272.71875 176.1328125 C-272.6775 175.3490625 -272.63625 174.5653125 -272.59375 173.7578125 C-271.36226252 168.65593579 -268.85102384 164.33687235 -265.71875 160.1328125 C-265.05875 160.1328125 -264.39875 160.1328125 -263.71875 160.1328125 C-263.61433594 159.41738281 -263.50992188 158.70195312 -263.40234375 157.96484375 C-262.64352733 154.82117573 -261.45381294 152.58065477 -259.78125 149.8203125 C-259.25660156 148.93730469 -258.73195313 148.05429688 -258.19140625 147.14453125 C-257.70542969 146.48066406 -257.21945312 145.81679687 -256.71875 145.1328125 C-256.05875 145.1328125 -255.39875 145.1328125 -254.71875 145.1328125 C-254.38875 143.4828125 -254.05875 141.8328125 -253.71875 140.1328125 C-253.05875 140.1328125 -252.39875 140.1328125 -251.71875 140.1328125 C-251.38875 138.8128125 -251.05875 137.4928125 -250.71875 136.1328125 C-250.05875 136.1328125 -249.39875 136.1328125 -248.71875 136.1328125 C-248.61433594 135.55917969 -248.50992188 134.98554688 -248.40234375 134.39453125 C-247.60875159 131.76887491 -246.44719366 130.11633443 -244.78125 127.9453125 C-244.25660156 127.25050781 -243.73195313 126.55570312 -243.19140625 125.83984375 C-241.71875 124.1328125 -241.71875 124.1328125 -239.71875 123.1328125 C-239.22375 121.6478125 -239.22375 121.6478125 -238.71875 120.1328125 C-238.05875 120.1328125 -237.39875 120.1328125 -236.71875 120.1328125 C-236.22375 118.6478125 -236.22375 118.6478125 -235.71875 117.1328125 C-235.05875 117.1328125 -234.39875 117.1328125 -233.71875 117.1328125 C-233.22375 115.6478125 -233.22375 115.6478125 -232.71875 114.1328125 C-232.05875 114.1328125 -231.39875 114.1328125 -230.71875 114.1328125 C-230.38875 112.4828125 -230.05875 110.8328125 -229.71875 109.1328125 C-228.72875 109.1328125 -227.73875 109.1328125 -226.71875 109.1328125 C-226.71875 108.1428125 -226.71875 107.1528125 -226.71875 106.1328125 C-225.0790779 104.76641908 -223.40764872 103.4378706 -221.71875 102.1328125 C-220.996875 101.2253125 -220.275 100.3178125 -219.53125 99.3828125 C-218.933125 98.6403125 -218.335 97.8978125 -217.71875 97.1328125 C-217.05875 97.1328125 -216.39875 97.1328125 -215.71875 97.1328125 C-215.22375 95.6478125 -215.22375 95.6478125 -214.71875 94.1328125 C-213.06086215 92.78857911 -211.39298683 91.45662767 -209.71875 90.1328125 C-209.05875 89.3078125 -208.39875 88.4828125 -207.71875 87.6328125 C-205.59937764 84.98359706 -203.50566913 83.06221805 -200.71875 81.1328125 C-199.72875 81.1328125 -198.73875 81.1328125 -197.71875 81.1328125 C-197.71875 80.1428125 -197.71875 79.1528125 -197.71875 78.1328125 C-194.38541667 75.1328125 -194.38541667 75.1328125 -191.71875 75.1328125 C-191.22375 73.6478125 -191.22375 73.6478125 -190.71875 72.1328125 C-189.72875 72.1328125 -188.73875 72.1328125 -187.71875 72.1328125 C-187.22375 70.6478125 -187.22375 70.6478125 -186.71875 69.1328125 C-186.05875 69.1328125 -185.39875 69.1328125 -184.71875 69.1328125 C-184.71875 68.4728125 -184.71875 67.8128125 -184.71875 67.1328125 C-179.30698529 63.1328125 -179.30698529 63.1328125 -176.71875 63.1328125 C-176.38875 62.1428125 -176.05875 61.1528125 -175.71875 60.1328125 C-174.72875 60.1328125 -173.73875 60.1328125 -172.71875 60.1328125 C-172.71875 59.4728125 -172.71875 58.8128125 -172.71875 58.1328125 C-167.42463235 54.1328125 -167.42463235 54.1328125 -163.71875 54.1328125 C-163.71875 53.4728125 -163.71875 52.8128125 -163.71875 52.1328125 C-157.09375 48.1328125 -157.09375 48.1328125 -153.71875 48.1328125 C-153.71875 47.4728125 -153.71875 46.8128125 -153.71875 46.1328125 C-152.39875 45.8028125 -151.07875 45.4728125 -149.71875 45.1328125 C-149.71875 44.4728125 -149.71875 43.8128125 -149.71875 43.1328125 C-146.74875 42.6378125 -146.74875 42.6378125 -143.71875 42.1328125 C-143.71875 41.4728125 -143.71875 40.8128125 -143.71875 40.1328125 C-142.45183493 39.45872942 -141.18004251 38.79380753 -139.90625 38.1328125 C-139.19855469 37.7615625 -138.49085938 37.3903125 -137.76171875 37.0078125 C-135.71875 36.1328125 -135.71875 36.1328125 -132.71875 36.1328125 C-132.71875 35.4728125 -132.71875 34.8128125 -132.71875 34.1328125 C-129.74875 33.6378125 -129.74875 33.6378125 -126.71875 33.1328125 C-126.71875 32.4728125 -126.71875 31.8128125 -126.71875 31.1328125 C-125.38070312 30.62621094 -125.38070312 30.62621094 -124.015625 30.109375 C-122.84515625 29.66335937 -121.6746875 29.21734375 -120.46875 28.7578125 C-119.30859375 28.31695312 -118.1484375 27.87609375 -116.953125 27.421875 C-113.84332912 26.2454706 -113.84332912 26.2454706 -111.484375 24.96875 C-109.71875 24.1328125 -109.71875 24.1328125 -106.71875 24.1328125 C-106.71875 23.4728125 -106.71875 22.8128125 -106.71875 22.1328125 C-103.74875 21.8028125 -100.77875 21.4728125 -97.71875 21.1328125 C-97.71875 20.4728125 -97.71875 19.8128125 -97.71875 19.1328125 C-95.40875 18.8028125 -93.09875 18.4728125 -90.71875 18.1328125 C-90.71875 17.4728125 -90.71875 16.8128125 -90.71875 16.1328125 C-88.53488582 15.45433042 -86.34644916 14.7905574 -84.15625 14.1328125 C-82.93808594 13.7615625 -81.71992188 13.3903125 -80.46484375 13.0078125 C-76.73951651 12.13766307 -73.52809051 11.97592846 -69.71875 12.1328125 C-69.71875 11.4728125 -69.71875 10.8128125 -69.71875 10.1328125 C-69.08066406 10.00003906 -68.44257813 9.86726563 -67.78515625 9.73046875 C-66.95886719 9.55386719 -66.13257813 9.37726562 -65.28125 9.1953125 C-64.45753906 9.02128906 -63.63382813 8.84726562 -62.78515625 8.66796875 C-60.74213796 8.32528256 -60.74213796 8.32528256 -59.71875 7.1328125 C-56.36347786 6.55556138 -52.99696628 6.10195564 -49.625 5.6328125 C-46.83399717 5.44038545 -46.83399717 5.44038545 -45.71875 4.1328125 C-44.2574989 3.91850807 -42.78759765 3.76233864 -41.31640625 3.6328125 C-40.42630859 3.5503125 -39.53621094 3.4678125 -38.61914062 3.3828125 C-37.68263672 3.3003125 -36.74613281 3.2178125 -35.78125 3.1328125 C-33.93847495 2.96980268 -32.09600425 2.80330313 -30.25390625 2.6328125 C-29.432854 2.560625 -28.61180176 2.4884375 -27.76586914 2.4140625 C-25.65757335 2.236104 -25.65757335 2.236104 -23.71875 1.1328125 C-15.85696574 -0.00476082 -7.92614005 -0.01443127 0 0 Z " fill="#FEFEFE" transform="translate(345.71875,36.8671875)"/>
<path d="M0 0 C67.20006281 0 67.20006281 0 78.6796875 4.21484375 C81.48129726 5.16286321 84.3084868 5.82445759 87.1875 6.5 C91.52140518 7.54611504 95.15526402 8.75723735 99 11 C99 11.66 99 12.32 99 13 C100.0828125 13.433125 100.0828125 13.433125 101.1875 13.875 C102.115625 14.24625 103.04375 14.6175 104 15 C104.804375 15.226875 105.60875 15.45375 106.4375 15.6875 C109.64875152 17.33228736 111.27350533 19.46970483 113.5078125 22.25390625 C115.424019 24.49616883 117.69699649 26.17114427 120 28 C120 28.66 120 29.32 120 30 C120.5775 30.226875 121.155 30.45375 121.75 30.6875 C124.56427613 32.32916107 126.02737733 34.43559053 128 37 C128.66 37.33 129.32 37.66 130 38 C131.0360862 39.90766847 132.00573521 41.85176341 132.9375 43.8125 C134.96416007 48.11248431 134.96416007 48.11248431 137.58984375 52.046875 C139.31765211 54.43996137 139.90446075 56.58305606 140.625 59.4375 C140.86476563 60.36433594 141.10453125 61.29117188 141.3515625 62.24609375 C141.95814128 64.82222654 142.50006247 67.40126812 143 70 C143.66 70 144.32 70 145 70 C148.60247438 90.11090064 149.20262776 111.11452305 147.125 131.4375 C147.04660889 132.21206543 146.96821777 132.98663086 146.88745117 133.78466797 C146.39072665 138.09850371 145.48197016 141.89563733 144 146 C143.59901675 147.61878424 143.22105643 149.24359112 142.875 150.875 C142.62363281 152.04675781 142.62363281 152.04675781 142.3671875 153.2421875 C142.24601563 153.82226562 142.12484375 154.40234375 142 155 C141.34 155 140.68 155 140 155 C140 155.99 140 156.98 140 158 C139.34 158 138.68 158 138 158 C137.938125 159.175625 137.87625 160.35125 137.8125 161.5625 C137.21723105 166.4454308 134.99245735 169.24331508 132 173 C130.5664706 175.28302831 129.23097051 177.47583406 128.14453125 179.94140625 C126.83674215 182.29364126 125.45023215 183.54682142 123.375 185.25 C119.60764393 188.4145791 116.21694522 191.80500491 112.859375 195.3984375 C110.87360721 197.10886774 109.56087498 197.60340432 107 198 C107 198.66 107 199.32 107 200 C104.91796875 201.5078125 104.91796875 201.5078125 102.1875 203.125 C101.29417969 203.66382813 100.40085937 204.20265625 99.48046875 204.7578125 C97 206 97 206 94 206 C94 206.66 94 207.32 94 208 C93.27554688 208.19335938 92.55109375 208.38671875 91.8046875 208.5859375 C90.83789062 208.84632813 89.87109375 209.10671875 88.875 209.375 C87.92367187 209.63023437 86.97234375 209.88546875 85.9921875 210.1484375 C82.96778443 211.0091684 79.98313333 212.00562222 77 213 C51.8840305 218.38199347 25.6861398 216 0 216 C0 144.72 0 73.44 0 0 Z " fill="#FDFDFD" transform="translate(300,264)"/>
<path d="M0 0 C17.65533083 -0.02341664 35.31065677 -0.04102209 52.9659996 -0.05181217 C61.16467561 -0.05695656 69.36334193 -0.06396368 77.56201172 -0.07543945 C84.71248228 -0.08544323 91.86294583 -0.09186692 99.0134232 -0.09408849 C102.79542361 -0.09538597 106.57740395 -0.09841034 110.35939789 -0.10573006 C113.92817599 -0.11258034 117.49692601 -0.11459887 121.06571007 -0.11310768 C122.98139685 -0.11350862 124.89708066 -0.11885643 126.8127594 -0.12442017 C137.78908249 -0.11151535 148.27183694 0.67936898 159 3 C160.99810662 3.34450114 162.99722415 3.68377223 165 4 C165 4.66 165 5.32 165 6 C166.258125 6.061875 167.51625 6.12375 168.8125 6.1875 C173.90571238 6.72744498 177.96463448 8.58273342 182.51953125 10.84375 C184.70108384 11.8606627 186.65209516 12.5183785 189 13 C189 13.66 189 14.32 189 15 C190.98 15.33 192.96 15.66 195 16 C195 16.66 195 17.32 195 18 C196.32 18.33 197.64 18.66 199 19 C199 19.66 199 20.32 199 21 C199.86044922 21.18949219 199.86044922 21.18949219 200.73828125 21.3828125 C203.04328837 22.01181272 205.0386766 22.83485659 207.1875 23.875 C207.88230469 24.20242188 208.57710937 24.52984375 209.29296875 24.8671875 C211 26 211 26 212 29 C213.71984423 30.35881908 215.50066206 31.64151033 217.3125 32.875 C221.25425374 35.55897117 224.26507554 38.06326788 227 42 C227 42.66 227 43.32 227 44 C227.58523438 44.21527344 228.17046875 44.43054688 228.7734375 44.65234375 C231.74973771 46.45378862 232.86205682 48.58413564 234.625 51.5625 C236.68581309 55.43931447 236.68581309 55.43931447 240 58 C240.8581694 59.82433972 241.63758929 61.68609504 242.375 63.5625 C243.87643099 67.30939456 245.41896684 70.93530591 247.3125 74.5 C249 78 249 78 249 82 C249.66 82 250.32 82 251 82 C251.47958192 85.18743766 251.95858959 88.37496138 252.4375 91.5625 C252.63956055 92.90538086 252.63956055 92.90538086 252.84570312 94.27539062 C253.11228209 96.05041638 253.37588114 97.82589228 253.63647461 99.60180664 C253.92420456 101.49997407 254.25190003 103.39207909 254.59375 105.28125 C255.23588668 111.15927038 255.10277121 117.03002273 255.0625 122.9375 C255.05798828 124.19369141 255.05347656 125.44988281 255.04882812 126.74414062 C255.03709681 129.82947663 255.020681 132.91471316 255 136 C254.34 136 253.68 136 253 136 C252.92652344 137.485 252.92652344 137.485 252.8515625 139 C252.4767037 145.86748281 252.00819567 152.3847672 250 159 C249.690625 160.134375 249.38125 161.26875 249.0625 162.4375 C245.45706371 174.52631579 245.45706371 174.52631579 242 180 C240.51762012 183.30684742 239.14585539 186.56243383 238 190 C237.34 190 236.68 190 236 190 C235.77183594 190.65484375 235.54367187 191.3096875 235.30859375 191.984375 C233.57663296 195.97563986 231.36036266 199.56280913 229.0625 203.25 C228.61970703 203.9821875 228.17691406 204.714375 227.72070312 205.46875 C227.28822266 206.16484375 226.85574219 206.8609375 226.41015625 207.578125 C226.01965088 208.21137695 225.62914551 208.84462891 225.22680664 209.49707031 C224 211 224 211 221 212 C219.92128355 213.88107813 219.92128355 213.88107813 219 216 C214.31408049 222.71049798 206.79969103 230.40010299 199 233 C199 233.66 199 234.32 199 235 C198.01 235.33 197.02 235.66 196 236 C195.67 236.66 195.34 237.32 195 238 C192.4375 238.625 192.4375 238.625 190 239 C190 239.66 190 240.32 190 241 C186.66666667 242.66666667 183.33333333 244.33333333 180 246 C179.29359375 246.38414062 178.5871875 246.76828125 177.859375 247.1640625 C176 248 176 248 173 248 C173 248.66 173 249.32 173 250 C170.79195441 250.79247664 168.58357503 251.5840013 166.375 252.375 C165.14523437 252.81585938 163.91546875 253.25671875 162.6484375 253.7109375 C161.44445312 254.13632812 160.24046875 254.56171875 159 255 C157.9275 255.3815625 156.855 255.763125 155.75 256.15625 C152.70883779 257.08933386 150.16295409 257.15061686 147 257 C147 257.66 147 258.32 147 259 C141.39 259.33 135.78 259.66 130 260 C130 260.66 130 261.32 130 262 C87.1 262 44.2 262 0 262 C0 260.02 0 258.04 0 256 C1.32 255.67 2.64 255.34 4 255 C4 254.34 4 253.68 4 253 C5.98 252.67 7.96 252.34 10 252 C10 251.34 10 250.68 10 250 C12.90548882 247.95830515 14.40142046 247 18 247 C18 246.34 18 245.68 18 245 C19.95649397 244.16235732 21.91525556 243.33000941 23.875 242.5 C24.96554687 242.0359375 26.05609375 241.571875 27.1796875 241.09375 C30 240 30 240 32 240 C31.93955124 211.74118991 31.86211245 183.48247097 31.76428509 155.22376442 C31.71926396 142.10361151 31.67986398 128.98348614 31.65356445 115.86328125 C31.63063542 104.43157848 31.59729483 92.99996237 31.55129844 81.56832826 C31.52729729 75.51186408 31.50861379 69.45548608 31.50238609 63.39897537 C31.49636629 57.7043257 31.4764798 52.00989677 31.44572449 46.3153286 C31.43689419 44.21985973 31.4332319 42.12436208 31.43499184 40.02887535 C31.43663061 37.17854709 31.42006575 34.32890307 31.39872742 31.47866821 C31.40357499 30.64015812 31.40842257 29.80164802 31.41341704 28.93772852 C31.41757887 26.40755855 31.41757887 26.40755855 31 23 C30.01 22.34 29.02 21.68 28 21 C28 20.34 28 19.68 28 19 C26.7934375 18.9071875 26.7934375 18.9071875 25.5625 18.8125 C20.1188679 17.57096987 14.97206526 14.97206526 11 11 C9.33271135 10.26483945 7.64173093 9.58241041 5.9375 8.9375 C1.09722222 7.09722222 1.09722222 7.09722222 0 6 C-0.04080783 4.00041636 -0.04254356 1.99954746 0 0 Z M68 23 C68 94.28 68 165.56 68 239 C113.61057129 240.71181977 113.61057129 240.71181977 154.375 233.3125 C155.12265625 233.08755859 155.8703125 232.86261719 156.640625 232.63085938 C158.42857948 232.09218078 160.21453675 231.54687918 162 231 C162 230.34 162 229.68 162 229 C162.56203125 228.88785156 163.1240625 228.77570313 163.703125 228.66015625 C166.31513108 227.90942661 168.39471322 226.78832624 170.75 225.4375 C171.54921875 224.98246094 172.3484375 224.52742187 173.171875 224.05859375 C173.77515625 223.70925781 174.3784375 223.35992187 175 223 C175 222.34 175 221.68 175 221 C175.721875 220.77054688 176.44375 220.54109375 177.1875 220.3046875 C180.55458849 218.74273256 182.44966892 216.81081742 185 214.125 C187.46105733 211.54858061 189.79295433 209.15836529 192.625 206.9921875 C195.19216541 204.83880862 196.42291799 202.93524896 198 200 C198.50660156 199.16339844 199.01320313 198.32679688 199.53515625 197.46484375 C200.03917969 196.63082031 200.54320312 195.79679688 201.0625 194.9375 C201.56910156 194.10089844 202.07570313 193.26429688 202.59765625 192.40234375 C204.98859706 188.30644235 206.26791451 185.82246116 206 181 C206.66 181 207.32 181 208 181 C208 180.01 208 179.02 208 178 C208.66 178 209.32 178 210 178 C210.30744141 176.50146484 210.30744141 176.50146484 210.62109375 174.97265625 C211.02521484 173.03712891 211.02521484 173.03712891 211.4375 171.0625 C211.70433594 169.77472656 211.97117187 168.48695313 212.24609375 167.16015625 C213 164 213 164 214 163 C217.49802175 140.02029505 217.09673337 115.87011348 213 93 C212.34 93 211.68 93 211 93 C210.85691406 92.278125 210.71382812 91.55625 210.56640625 90.8125 C210.28603516 89.4203125 210.28603516 89.4203125 210 88 C209.84402344 87.195625 209.68804687 86.39125 209.52734375 85.5625 C207.85571127 78.30030854 204.78152693 72.9051839 200.7421875 66.75 C199 64 199 64 198 61 C196.34614767 59.65080468 194.678298 58.31866272 193 57 C192 55.66666667 191 54.33333333 190 53 C189.34 53 188.68 53 188 53 C187.75378906 52.41476562 187.50757813 51.82953125 187.25390625 51.2265625 C185.80626232 48.65597983 184.20757518 47.24544307 181.9375 45.375 C178.09722222 42.19444444 178.09722222 42.19444444 177 40 C175.19016792 38.87471482 175.19016792 38.87471482 173.0625 37.875 C172.35222656 37.52179688 171.64195312 37.16859375 170.91015625 36.8046875 C169.03826723 35.8705915 169.03826723 35.8705915 167 36 C167 35.34 167 34.68 167 34 C159.99734596 30.85873853 153.16399956 28.34151354 145.6796875 26.62109375 C143.53576583 26.12417896 141.41747268 25.51719505 139.3125 24.875 C118.38417082 19.3467621 79.96614437 23 68 23 Z " fill="#4B1FA0" transform="translate(232,241)"/>
<path d="M0 0 C21.17569333 -0.02340058 42.35138451 -0.04101428 63.52708817 -0.05181217 C73.36018558 -0.05695994 83.19327494 -0.06397361 93.02636719 -0.07543945 C101.60075599 -0.08543279 110.17513895 -0.09186447 118.74953341 -0.09408849 C123.28606562 -0.09538772 127.82258114 -0.09842344 132.35910797 -0.10573006 C136.63703517 -0.11256375 140.91493895 -0.11460213 145.19287109 -0.11310768 C146.75523761 -0.11338073 148.31760498 -0.11534196 149.87996674 -0.11920547 C172.96739548 -0.17345311 172.96739548 -0.17345311 183.1875 2.75 C184.44175781 3.10449219 185.69601562 3.45898438 186.98828125 3.82421875 C188.32568612 4.21558145 189.66291965 4.60753003 191 5 C192.4725355 5.42359707 193.94519485 5.8467638 195.41796875 6.26953125 C199.62128312 7.48287331 203.81065077 8.73933605 208 10 C208.89847656 10.25523437 209.79695312 10.51046875 210.72265625 10.7734375 C215.73993094 12.27773503 219.80157025 14.58628001 224.2265625 17.37109375 C229.27504837 20.33619038 234.65041518 22.63544997 240 25 C240 25.66 240 26.32 240 27 C240.721875 27.061875 241.44375 27.12375 242.1875 27.1875 C245.85956016 28.24831738 247.39427842 30.26065167 250 33 C252.16620544 34.29519995 252.16620544 34.29519995 254 35 C254 35.66 254 36.32 254 37 C254.556875 37.226875 255.11375 37.45375 255.6875 37.6875 C258.64691361 39.36716718 260.62408786 41.56751852 263 44 C264.05290627 44.88652108 265.11550158 45.76166308 266.1875 46.625 C269 49 269 49 271 52 C271 52.99 271 53.98 271 55 C271.66 55 272.32 55 273 55 C274.63139937 56.92587579 276.13723225 58.84326717 277.625 60.875 C278.04523438 61.43058594 278.46546875 61.98617187 278.8984375 62.55859375 C282 66.73764712 282 66.73764712 282 69 C282.66 69 283.32 69 284 69 C284.66 72.3 285.32 75.6 286 79 C286.66 79 287.32 79 288 79 C291 84.625 291 84.625 291 88 C291.66 88 292.32 88 293 88 C293.25523437 89.11181641 293.25523437 89.11181641 293.515625 90.24609375 C293.75796875 91.29925781 294.0003125 92.35242188 294.25 93.4375 C294.64119019 95.17555908 294.64119019 95.17555908 295.0402832 96.94873047 C295.63736123 99.54215454 296.30514102 102.07191672 297.03491211 104.63549805 C300.45754515 116.89398362 300.49621689 128.72188006 300.3125 141.375 C300.30097158 143.42056374 300.2911975 145.46613814 300.28320312 147.51171875 C300.26978701 149.49480282 300.25486624 151.4778774 300.23828125 153.4609375 C300.23089432 154.35702728 300.22350739 155.25311707 300.21589661 156.17636108 C299.96590105 173.02914092 299.96590105 173.02914092 297 181 C296.63079809 182.99369031 296.28674418 184.99279077 296 187 C295.34 187 294.68 187 294 187 C294.061875 187.99 294.12375 188.98 294.1875 190 C294.19505146 193.74552496 293.20486058 196.59370261 291.7890625 200.02734375 C290.86666249 202.23166413 290.86666249 202.23166413 290 205.5625 C288.53026746 210.6147056 286.42487992 215.33676939 284 220 C283.34 220 282.68 220 282 220 C282 220.99 282 221.98 282 223 C281.34 223 280.68 223 280 223 C279.896875 223.886875 279.79375 224.77375 279.6875 225.6875 C278.98284093 229.0826755 278.0445434 231.21942098 276 234 C275.34 234 274.68 234 274 234 C273.34 236.31 272.68 238.62 272 241 C271.34 241 270.68 241 270 241 C269.74863281 241.5465625 269.49726563 242.093125 269.23828125 242.65625 C267.76224389 245.45001156 266.03108379 247.93378777 264.1875 250.5 C263.52105469 251.4384375 262.85460937 252.376875 262.16796875 253.34375 C259.98411906 256.01945773 257.69858877 257.86485284 255 260 C253.6656964 261.66588999 252.33239749 263.33258509 251 265 C249.18756039 266.6309326 247.33132716 268.21432518 245.4375 269.75 C244.48746094 270.52859375 243.53742188 271.3071875 242.55859375 272.109375 C240 274 240 274 237 275 C237 275.66 237 276.32 237 277 C235.37463311 278.06581436 233.69175165 279.04304957 232 280 C230.50608876 280.93058796 229.01694478 281.86884975 227.53125 282.8125 C226.30341797 283.58980469 226.30341797 283.58980469 225.05078125 284.3828125 C224.20902344 284.91648437 223.36726562 285.45015625 222.5 286 C208.50311691 294.87398101 208.50311691 294.87398101 202 297 C200.53662532 297.65552658 199.07862946 298.32313817 197.625 299 C194.72543021 300.31842855 191.97829217 301.34681828 188.875 302.0625 C185.03055082 302.85513782 185.03055082 302.85513782 181.8125 304.5 C177.34481359 306.56200911 172.53193402 306.94232292 167.6953125 307.5703125 C165.08889375 307.71545039 165.08889375 307.71545039 164 309 C155.72575202 310.47589631 147.18806738 310.13563671 138.81982422 310.11352539 C137.31097923 310.1132428 135.8021341 310.11340265 134.29328918 310.1139679 C130.22581701 310.11425308 126.15837474 310.10840161 122.09090948 310.10139394 C117.82949827 310.0951138 113.56808627 310.09455293 109.30667114 310.09336853 C101.24986505 310.0902689 93.19307264 310.08207405 85.13627255 310.07201904 C75.95846624 310.06081529 66.78065926 310.05533674 57.60284781 310.05032361 C38.73522414 310.03989022 19.86761317 310.02231742 1 310 C0.875 303.25 0.875 303.25 2 301 C4.64860427 300.40644386 7.29197322 300.25790731 10 300 C10.495 301.485 10.495 301.485 11 303 C15.08973132 304.78527148 18.68240645 305.25495083 23.11239624 305.2784729 C24.3154541 305.28963638 25.51851196 305.30079987 26.75802612 305.31230164 C28.06425934 305.31446182 29.37049255 305.31662201 30.71630859 305.31884766 C32.11619644 305.32815334 33.51607877 305.33832297 34.91595459 305.34928894 C38.70472298 305.3765309 42.49345431 305.39172107 46.28229475 305.40471697 C50.24615181 305.42037298 54.20993346 305.44715531 58.17373657 305.4727478 C65.67461021 305.51949191 73.17549811 305.55625713 80.67644274 305.58942068 C89.21818306 305.62767296 97.75984756 305.67707497 106.30152392 305.72740483 C123.86762774 305.83065971 141.43377547 305.91994102 159 306 C159 305.34 159 304.68 159 304 C159.92683594 303.86722656 160.85367188 303.73445313 161.80859375 303.59765625 C163.00613281 303.42105469 164.20367187 303.24445313 165.4375 303.0625 C167.22994141 302.80146484 167.22994141 302.80146484 169.05859375 302.53515625 C171.87955676 302.31014787 171.87955676 302.31014787 173 301 C174.53529607 300.67647018 176.07874517 300.39127349 177.625 300.125 C180.93105602 299.50068041 183.87289555 298.7662123 186.9375 297.375 C190 296 190 296 193 296 C193 295.34 193 294.68 193 294 C193.61488281 293.87882812 194.22976563 293.75765625 194.86328125 293.6328125 C195.67152344 293.46523438 196.47976563 293.29765625 197.3125 293.125 C198.11300781 292.96257812 198.91351563 292.80015625 199.73828125 292.6328125 C202.25301118 292.05521001 202.25301118 292.05521001 205 290 C205.99 290 206.98 290 208 290 C208 289.34 208 288.68 208 288 C209.95649397 287.16235732 211.91525556 286.33000941 213.875 285.5 C214.96554687 285.0359375 216.05609375 284.571875 217.1796875 284.09375 C220 283 220 283 222 283 C222 282.34 222 281.68 222 281 C223.32 280.67 224.64 280.34 226 280 C226 279.34 226 278.68 226 278 C228.9826906 276.47551369 231.818202 275.06059933 235 274 C235 273.34 235 272.68 235 272 C236.97946592 270.63636792 238.9819245 269.30581356 241 268 C241.5775 267.4225 242.155 266.845 242.75 266.25 C243.1625 265.8375 243.575 265.425 244 265 C244.66 265 245.32 265 246 265 C246.33 264.01 246.66 263.02 247 262 C247.66 262 248.32 262 249 262 C249.33 261.01 249.66 260.02 250 259 C250.66 259 251.32 259 252 259 C252.33 258.01 252.66 257.02 253 256 C253.66 256 254.32 256 255 256 C255.33 255.01 255.66 254.02 256 253 C256.66 253 257.32 253 258 253 C258.268125 252.4225 258.53625 251.845 258.8125 251.25 C260.40754365 248.22781204 262.46392615 245.68617453 264.5625 243 C265.9517222 241.06716912 266.99939166 239.15515643 268 237 C268.66 237 269.32 237 270 237 C271.73662334 233.77484237 272.8905928 230.48670834 274 227 C274.66 227 275.32 227 276 227 C277.96301592 223.49461443 278.95902388 219.86648272 280 216 C280.66 216 281.32 216 282 216 C282 215.01 282 214.02 282 213 C282.66 213 283.32 213 284 213 C284.14695312 211.85724609 284.14695312 211.85724609 284.296875 210.69140625 C285.0194556 205.70186262 285.71787087 201.12081882 287.9375 196.5625 C290.65635996 190.9334529 291.76072063 185.09646767 293 179 C293.25491211 177.77998291 293.50982422 176.55996582 293.77246094 175.30297852 C295.98688617 164.16205366 296.53631797 153.27397675 296.6875 141.9375 C296.72078907 140.18422128 296.75528868 138.43096511 296.79101562 136.67773438 C296.87456198 132.45195125 296.941975 128.2262074 297 124 C296.34 124 295.68 124 295 124 C294.89042969 123.27296875 294.78085937 122.5459375 294.66796875 121.796875 C293.17592053 112.33510581 291.21422995 103.04002174 288 94 C287.82082031 93.38511719 287.64164062 92.77023437 287.45703125 92.13671875 C284.38695402 81.95894757 279.3603446 72.48045947 273 64 C273 63.34 273 62.68 273 62 C272.34 62 271.68 62 271 62 C269.52734375 60.57421875 269.52734375 60.57421875 267.9375 58.6875 C267.41027344 58.07261719 266.88304687 57.45773437 266.33984375 56.82421875 C265 55 265 55 264 52 C262.7934375 50.7934375 262.7934375 50.7934375 261.5625 49.5625 C259 47 259 47 258.0625 44.8125 C257.1110175 42.71445907 257.1110175 42.71445907 254.4375 42.25 C249.36381655 40.4050242 245.67158803 36.91636056 242 33 C242 32.34 242 31.68 242 31 C241.278125 30.896875 240.55625 30.79375 239.8125 30.6875 C236.72206579 29.93206053 234.58256159 28.84468685 232 27 C232 26.34 232 25.68 232 25 C231.175 24.938125 230.35 24.87625 229.5 24.8125 C226.29540355 24.06857582 224.98341658 23.46646193 222.375 21.6875 C217.29970163 18.32014143 211.78347341 16.76780742 206 15 C204.37326988 14.46355159 202.7480739 13.92241109 201.125 13.375 C200.46757812 13.15585938 199.81015625 12.93671875 199.1328125 12.7109375 C197.57456732 12.19152244 196.03037669 11.62939515 194.49609375 11.04296875 C189.38671071 9.51871705 184.19927971 8.76072907 178.9375 7.9375 C177.88111328 7.76412109 176.82472656 7.59074219 175.73632812 7.41210938 C174.67736328 7.24388672 173.61839844 7.07566406 172.52734375 6.90234375 C171.58624756 6.75273193 170.64515137 6.60312012 169.67553711 6.44897461 C159.57502088 5.21517525 149.51805848 4.85087615 139.3503418 4.85473633 C138.05431534 4.85137772 136.75828888 4.8480191 135.42298889 4.84455872 C131.91093203 4.83582843 128.39889962 4.83338554 124.88683295 4.83274293 C122.68645782 4.8320271 120.48608872 4.829883 118.2857151 4.82724571 C110.59306067 4.81803459 102.90042344 4.81390622 95.20776367 4.81469727 C88.06000774 4.81529962 80.91232688 4.80470603 73.76458997 4.7889536 C67.60119293 4.77585877 61.43782042 4.77051406 55.27440959 4.77115268 C51.60449459 4.77140672 47.93464673 4.76860593 44.26474571 4.75797462 C40.17734014 4.74645244 36.09010292 4.75105231 32.00268555 4.75708008 C30.79887238 4.75146057 29.5950592 4.74584106 28.35476685 4.74005127 C22.21046907 4.76306817 16.8803619 5.18309387 11 7 C10.67 8.32 10.34 9.64 10 11 C6.05770057 10.43681437 3.05750913 9.62072211 0 7 C-0.13671875 3.3828125 -0.13671875 3.3828125 0 0 Z " fill="#6848A9" transform="translate(209,217)"/>
<path d="M0 0 C0.33 0.99 0.66 1.98 1 3 C5.08973132 4.78527148 8.68240645 5.25495083 13.11239624 5.2784729 C14.3154541 5.28963638 15.51851196 5.30079987 16.75802612 5.31230164 C18.06425934 5.31446182 19.37049255 5.31662201 20.71630859 5.31884766 C22.11619644 5.32815334 23.51607877 5.33832297 24.91595459 5.34928894 C28.70472298 5.3765309 32.49345431 5.39172107 36.28229475 5.40471697 C40.24615181 5.42037298 44.20993346 5.44715531 48.17373657 5.4727478 C55.67461021 5.51949191 63.17549811 5.55625713 70.67644274 5.58942068 C79.21818306 5.62767296 87.75984756 5.67707497 96.30152392 5.72740483 C113.86762774 5.83065971 131.43377547 5.91994102 149 6 C149 5.34 149 4.68 149 4 C153.62 3.67 158.24 3.34 163 3 C163.33 3.66 163.66 4.32 164 5 C162.54960861 5.66347691 161.08899434 6.30460398 159.625 6.9375 C158.81289063 7.29714844 158.00078125 7.65679688 157.1640625 8.02734375 C148.09230785 10.81606833 138.20924331 10.13833495 128.81982422 10.11352539 C127.31097923 10.1132428 125.8021341 10.11340265 124.29328918 10.1139679 C120.22581701 10.11425308 116.15837474 10.10840161 112.09090948 10.10139394 C107.82949827 10.0951138 103.56808627 10.09455293 99.30667114 10.09336853 C91.24986505 10.0902689 83.19307264 10.08207405 75.13627255 10.07201904 C65.95846624 10.06081529 56.78065926 10.05533674 47.60284781 10.05032361 C28.73522414 10.03989022 9.86761317 10.02231742 -9 10 C-9.125 3.25 -9.125 3.25 -8 1 C-5.07175348 0.02391783 -3.04386724 -0.08226668 0 0 Z " fill="#5A3A96" transform="translate(219,517)"/>
<path d="M0 0 C0.33 0 0.66 0 1 0 C1.21988087 5.49702183 0.96796993 9.79066783 -1 15 C-1.36920191 16.99369031 -1.71325582 18.99279077 -2 21 C-2.66 21 -3.32 21 -4 21 C-3.938125 21.99 -3.87625 22.98 -3.8125 24 C-3.80494854 27.74552496 -4.79513942 30.59370261 -6.2109375 34.02734375 C-7.13333751 36.23166413 -7.13333751 36.23166413 -8 39.5625 C-9.46973254 44.6147056 -11.57512008 49.33676939 -14 54 C-14.66 54 -15.32 54 -16 54 C-16 54.99 -16 55.98 -16 57 C-16.66 57 -17.32 57 -18 57 C-18.103125 57.886875 -18.20625 58.77375 -18.3125 59.6875 C-19.01715907 63.0826755 -19.9554566 65.21942098 -22 68 C-22.66 68 -23.32 68 -24 68 C-24.66 70.31 -25.32 72.62 -26 75 C-26.66 75 -27.32 75 -28 75 C-28.25136719 75.5465625 -28.50273437 76.093125 -28.76171875 76.65625 C-30.23775611 79.45001156 -31.96891621 81.93378777 -33.8125 84.5 C-34.47894531 85.4384375 -35.14539063 86.376875 -35.83203125 87.34375 C-38.01588094 90.01945773 -40.30141123 91.86485284 -43 94 C-44.3343036 95.66588999 -45.66760251 97.33258509 -47 99 C-48.81243961 100.6309326 -50.66867284 102.21432518 -52.5625 103.75 C-53.51253906 104.52859375 -54.46257812 105.3071875 -55.44140625 106.109375 C-58 108 -58 108 -61 109 C-61 109.66 -61 110.32 -61 111 C-62.62536689 112.06581436 -64.30824835 113.04304957 -66 114 C-67.49391124 114.93058796 -68.98305522 115.86884975 -70.46875 116.8125 C-71.28730469 117.33070313 -72.10585938 117.84890625 -72.94921875 118.3828125 C-73.79097656 118.91648437 -74.63273437 119.45015625 -75.5 120 C-89.49688309 128.87398101 -89.49688309 128.87398101 -96 131 C-97.46337468 131.65552658 -98.92137054 132.32313817 -100.375 133 C-103.27456979 134.31842855 -106.02170783 135.34681828 -109.125 136.0625 C-112.99949506 136.86660253 -112.99949506 136.86660253 -116.375 138.5625 C-120.91351571 140.36225623 -125.15967147 140.71756634 -130 141 C-128 139 -128 139 -125 138 C-125 137.01 -125 136.02 -125 135 C-124.35933594 134.89042969 -123.71867187 134.78085937 -123.05859375 134.66796875 C-118.87636601 133.90133088 -114.95022626 133.1353224 -111.0625 131.375 C-108 130 -108 130 -105 130 C-105 129.34 -105 128.68 -105 128 C-104.38511719 127.87882812 -103.77023437 127.75765625 -103.13671875 127.6328125 C-102.32847656 127.46523438 -101.52023437 127.29765625 -100.6875 127.125 C-99.88699219 126.96257812 -99.08648437 126.80015625 -98.26171875 126.6328125 C-95.74698882 126.05521001 -95.74698882 126.05521001 -93 124 C-92.01 124 -91.02 124 -90 124 C-90 123.34 -90 122.68 -90 122 C-88.04350603 121.16235732 -86.08474444 120.33000941 -84.125 119.5 C-82.48917969 118.80390625 -82.48917969 118.80390625 -80.8203125 118.09375 C-78 117 -78 117 -76 117 C-76 116.34 -76 115.68 -76 115 C-74.02 114.505 -74.02 114.505 -72 114 C-72 113.34 -72 112.68 -72 112 C-69.0173094 110.47551369 -66.181798 109.06059933 -63 108 C-63 107.34 -63 106.68 -63 106 C-61.02053408 104.63636792 -59.0180755 103.30581356 -57 102 C-56.4225 101.4225 -55.845 100.845 -55.25 100.25 C-54.8375 99.8375 -54.425 99.425 -54 99 C-53.34 99 -52.68 99 -52 99 C-51.505 97.515 -51.505 97.515 -51 96 C-50.34 96 -49.68 96 -49 96 C-48.505 94.515 -48.505 94.515 -48 93 C-47.34 93 -46.68 93 -46 93 C-45.505 91.515 -45.505 91.515 -45 90 C-44.34 90 -43.68 90 -43 90 C-42.505 88.515 -42.505 88.515 -42 87 C-41.34 87 -40.68 87 -40 87 C-39.731875 86.4225 -39.46375 85.845 -39.1875 85.25 C-37.59245635 82.22781204 -35.53607385 79.68617453 -33.4375 77 C-32.0482778 75.06716912 -31.00060834 73.15515643 -30 71 C-29.34 71 -28.68 71 -28 71 C-26.26337666 67.77484237 -25.1094072 64.48670834 -24 61 C-23.34 61 -22.68 61 -22 61 C-20.03698408 57.49461443 -19.04097612 53.86648272 -18 50 C-17.34 50 -16.68 50 -16 50 C-16 49.01 -16 48.02 -16 47 C-15.34 47 -14.68 47 -14 47 C-13.90203125 46.23816406 -13.8040625 45.47632813 -13.703125 44.69140625 C-12.83972189 38.72945894 -11.64279461 33.80533504 -9.01171875 28.40625 C-6.94516847 23.4912115 -6.06015019 18.20665476 -5 13 C-4.79246094 11.99195313 -4.58492188 10.98390625 -4.37109375 9.9453125 C-3.9025797 7.63222917 -3.44471631 5.31775677 -3 3 C-2.01 4.485 -2.01 4.485 -1 6 C-0.67 4.02 -0.34 2.04 0 0 Z " fill="#664EA3" transform="translate(507,383)"/>
<path d="M0 0 C19.52473395 -0.02344384 39.04946502 -0.04103528 58.57421017 -0.05181217 C67.64151927 -0.05695086 76.70881959 -0.06394686 85.77612305 -0.07543945 C93.68657756 -0.08546092 101.59702571 -0.09187105 109.5074864 -0.09408849 C113.68926855 -0.09538302 117.87103249 -0.09838808 122.05280876 -0.10573006 C126.0032625 -0.11260852 129.95369085 -0.11459339 133.90415001 -0.11310768 C135.34024952 -0.11337877 136.77635004 -0.11531278 138.21244431 -0.11920547 C148.51310448 -0.14571433 158.72824064 0.3019939 169 1 C169.33 1.66 169.66 2.32 170 3 C168.83601055 3.00496522 168.83601055 3.00496522 167.64850616 3.01003075 C148.75209999 3.09131107 129.85577487 3.18342004 110.95948029 3.28752708 C101.82131111 3.33761268 92.68315073 3.38405605 83.54492188 3.421875 C75.57847187 3.45485379 67.61209089 3.49471746 59.64571714 3.54279006 C55.4290215 3.56799657 51.21237129 3.58979502 46.99562073 3.60334396 C43.02295986 3.61621752 39.0504553 3.63832853 35.07788086 3.66738319 C33.62350662 3.67641772 32.16910724 3.68213952 30.71470642 3.68421364 C23.49758826 3.69634433 16.90666399 3.79594266 10 6 C9.67 7.32 9.34 8.64 9 10 C5.65626525 9.44271087 2.96687001 8.64826111 0 7 C0 4.69 0 2.38 0 0 Z " fill="#5D38A1" transform="translate(210,218)"/>
<path d="M0 0 C21.17569333 -0.02340058 42.35138451 -0.04101428 63.52708817 -0.05181217 C73.36018558 -0.05695994 83.19327494 -0.06397361 93.02636719 -0.07543945 C101.60075599 -0.08543279 110.17513895 -0.09186447 118.74953341 -0.09408849 C123.28606562 -0.09538772 127.82258114 -0.09842344 132.35910797 -0.10573006 C136.63703517 -0.11256375 140.91493895 -0.11460213 145.19287109 -0.11310768 C146.75523761 -0.11338073 148.31760498 -0.11534196 149.87996674 -0.11920547 C172.31234415 -0.17191396 172.31234415 -0.17191396 183.25 2.5625 C184.34828125 2.83191406 185.4465625 3.10132813 186.578125 3.37890625 C187.77695312 3.68634766 187.77695312 3.68634766 189 4 C189 4.33 189 4.66 189 5 C184.71 5 180.42 5 176 5 C181.445 6.485 181.445 6.485 187 8 C182.55457875 9.11135531 179.42889676 8.51165923 175.0625 7.625 C167.69884598 6.21676372 160.49602095 5.37806019 153 5 C153 4.67 153 4.34 153 4 C161.415 3.505 161.415 3.505 170 3 C159.02247315 2.28764185 148.1199239 1.84057665 137.11694336 1.79467773 C135.61691543 1.78506062 134.11688998 1.77504857 132.61686707 1.76467896 C128.60562121 1.73803787 124.59436408 1.71681201 120.58308101 1.69667697 C116.36840142 1.67456051 112.15375491 1.6472994 107.93910217 1.62062073 C99.98526031 1.57103598 92.03139975 1.52597268 84.07752186 1.48259836 C75.0107728 1.43293032 65.94405697 1.37812346 56.8773402 1.32291877 C38.2515911 1.20962519 19.62581051 1.10267504 1 1 C1 2.98 1 4.96 1 7 C0.67 7 0.34 7 0 7 C0 4.69 0 2.38 0 0 Z " fill="#6B46AC" transform="translate(209,217)"/>
<path d="M0 0 C-3.06246747 1.78409802 -5.22079273 2.22880021 -8.75 2.125 C-9.54921875 2.10695313 -10.3484375 2.08890625 -11.171875 2.0703125 C-11.77515625 2.04710937 -12.3784375 2.02390625 -13 2 C-13 2.66 -13 3.32 -13 4 C-59.86 4 -106.72 4 -155 4 C-155.33 3.34 -155.66 2.68 -156 2 C-155.32578286 2.00092179 -154.65156572 2.00184359 -153.95691776 2.00279331 C-137.57493909 2.02484818 -121.19296511 2.04141137 -104.81097507 2.05181217 C-96.88887055 2.05697521 -88.96677591 2.06401805 -81.04467773 2.07543945 C-74.14225363 2.08538606 -67.23983669 2.09185337 -60.33740562 2.09408849 C-56.68039339 2.09539564 -53.02340164 2.09848174 -49.36639595 2.10573006 C-45.29055994 2.11374348 -41.21475987 2.11399115 -37.13891602 2.11352539 C-35.91756454 2.11712067 -34.69621307 2.12071594 -33.43785095 2.12442017 C-31.78240768 2.12235817 -31.78240768 2.12235817 -30.09352112 2.12025452 C-28.64584524 2.12163721 -28.64584524 2.12163721 -27.16892338 2.12304783 C-25.02069722 2.24267064 -25.02069722 2.24267064 -24 1 C-21.47354233 0.75895987 -18.96994009 0.57604605 -16.4375 0.4375 C-15.74591797 0.39431641 -15.05433594 0.35113281 -14.34179688 0.30664062 C-9.55410494 0.02553662 -4.79562399 -0.03776082 0 0 Z " fill="#B8A7DB" transform="translate(381,519)"/>
<path d="M0 0 C0.33 0 0.66 0 1 0 C1.21988087 5.49702183 0.96796993 9.79066783 -1 15 C-1.36920191 16.99369031 -1.71325582 18.99279077 -2 21 C-2.66 21 -3.32 21 -4 21 C-3.938125 21.99 -3.87625 22.98 -3.8125 24 C-3.80494854 27.74552496 -4.79513942 30.59370261 -6.2109375 34.02734375 C-7.13333751 36.23166413 -7.13333751 36.23166413 -8 39.5625 C-9.06614395 43.22736983 -10.43862561 46.52239339 -12 50 C-13.33470263 47.33059475 -12.57333449 45.86667247 -12 43 C-12.33 42.34 -12.66 41.68 -13 41 C-12.41770889 38.61790001 -11.74287176 36.33473982 -11 34 C-7.79503023 23.71793371 -5.0377364 13.57888685 -3 3 C-2.01 4.485 -2.01 4.485 -1 6 C-0.67 4.02 -0.34 2.04 0 0 Z " fill="#8366B4" transform="translate(507,383)"/>
<path d="M0 0 C0.99 0.495 0.99 0.495 2 1 C2 2.32 2 3.64 2 5 C2.66 5 3.32 5 4 5 C4.47958192 8.18743766 4.95858959 11.37496138 5.4375 14.5625 C5.57220703 15.45775391 5.70691406 16.35300781 5.84570312 17.27539062 C6.11228209 19.05041638 6.37588114 20.82589228 6.63647461 22.60180664 C6.92420456 24.49997407 7.25190003 26.39207909 7.59375 28.28125 C8.23588668 34.15927038 8.10277121 40.03002273 8.0625 45.9375 C8.05798828 47.19369141 8.05347656 48.44988281 8.04882812 49.74414062 C8.03709681 52.82947663 8.020681 55.91471316 8 59 C7.34 59 6.68 59 6 59 C5.67 63.95 5.34 68.9 5 74 C4.67 74 4.34 74 4 74 C4.00444122 73.36487991 4.00888245 72.72975983 4.01345825 72.07539368 C4.05803916 65.40697502 4.08800928 58.73859936 4.10986328 52.07006836 C4.11986074 49.58828 4.13346314 47.10650324 4.15087891 44.62475586 C4.17540422 41.03756836 4.18654601 37.45053791 4.1953125 33.86328125 C4.20563507 32.77106766 4.21595764 31.67885406 4.22659302 30.55354309 C4.22799966 20.68208457 3.1747762 11.36808366 0 2 C0 1.34 0 0.68 0 0 Z " fill="#7E63AF" transform="translate(479,318)"/>
<path d="M0 0 C8.87810654 0.1530708 15.33686932 3.88544684 23 8 C24.11246094 8.52464844 25.22492188 9.04929688 26.37109375 9.58984375 C29 11 29 11 29.875 13.1875 C29.91625 13.785625 29.9575 14.38375 30 15 C32.475 15.495 32.475 15.495 35 16 C35 16.99 35 17.98 35 19 C30.55619192 17.86726461 26.73563279 16.71682385 23 14 C23 13.34 23 12.68 23 12 C21.7625 11.9071875 21.7625 11.9071875 20.5 11.8125 C16.61892092 10.91153521 14.28837267 9.38602291 11.02734375 7.1953125 C9.02516404 6.0148366 7.37697176 5.45250394 5.125 4.9375 C2 4 2 4 0.8046875 1.94140625 C0.53914063 1.30074219 0.27359375 0.66007813 0 0 Z " fill="#6846A8" transform="translate(418,230)"/>
<path d="M0 0 C0.99 0.33 1.98 0.66 3 1 C3 2.32 3 3.64 3 5 C39.96 5 76.92 5 115 5 C115 5.33 115 5.66 115 6 C76.72 6 38.44 6 -1 6 C-0.67 4.02 -0.34 2.04 0 0 Z " fill="#422186" transform="translate(234,496)"/>
<path d="M0 0 C14.47520755 -0.15435648 27.88124317 0.37922204 42 4 C42 4.33 42 4.66 42 5 C37.71 5 33.42 5 29 5 C34.445 6.485 34.445 6.485 40 8 C35.55457875 9.11135531 32.42889676 8.51165923 28.0625 7.625 C20.69884598 6.21676372 13.49602095 5.37806019 6 5 C6 4.67 6 4.34 6 4 C14.415 3.505 14.415 3.505 23 3 C17.67573292 2.71223378 17.67573292 2.71223378 12.35107422 2.43188477 C8.17066467 2.19598239 4.12220032 1.78361316 0 1 C0 0.67 0 0.34 0 0 Z " fill="#876BBB" transform="translate(356,217)"/>
<path d="M0 0 C0.66 0.33 1.32 0.66 2 1 C2.07476069 6.22864743 2.12888763 11.45697628 2.16479492 16.68603516 C2.17978093 18.46082996 2.20017682 20.23558837 2.22631836 22.01025391 C2.49791465 40.9367875 2.49791465 40.9367875 -1 49 C-1.33 49 -1.66 49 -2 49 C-2.02740022 47.14591875 -2.04657422 45.29171531 -2.0625 43.4375 C-2.07410156 42.40496094 -2.08570313 41.37242187 -2.09765625 40.30859375 C-2 37 -2 37 -1.51367188 33.74609375 C-1.0076495 30.05578609 -0.79540408 26.47559292 -0.68359375 22.75390625 C-0.66281265 22.09792953 -0.64203156 21.44195282 -0.62062073 20.76609802 C-0.55594062 18.69832454 -0.49662534 16.63043899 -0.4375 14.5625 C-0.39423693 13.14907758 -0.35062035 11.73566593 -0.30664062 10.32226562 C-0.20034484 6.88162529 -0.09885528 3.44086308 0 0 Z " fill="#5735A0" transform="translate(507,342)"/>
<path d="M0 0 C1.2065625 0.0309375 1.2065625 0.0309375 2.4375 0.0625 C1.4375 3.0625 1.4375 3.0625 -1.625 4.625 C-4.89228418 5.91454161 -8.18269749 6.74794732 -11.6015625 7.52734375 C-13.85306123 8.08336864 -13.85306123 8.08336864 -16.9375 9.625 C-21.47601571 11.42475623 -25.72217147 11.78006634 -30.5625 12.0625 C-28.5625 10.0625 -28.5625 10.0625 -25.5625 9.0625 C-25.5625 8.0725 -25.5625 7.0825 -25.5625 6.0625 C-24.97984375 5.95292969 -24.3971875 5.84335937 -23.796875 5.73046875 C-16.24813093 4.27057013 -7.18098175 0.1751459 0 0 Z " fill="#5E4297" transform="translate(407.5625,511.9375)"/>
<path d="M0 0 C0.33 0.99 0.66 1.98 1 3 C3.06758629 3.95001288 3.06758629 3.95001288 5.5 4.5625 C7.96875 5.25390625 7.96875 5.25390625 10 6 C10.33 6.66 10.66 7.32 11 8 C4.4 8 -2.2 8 -9 8 C-8.67 5.69 -8.34 3.38 -8 1 C-5.07175348 0.02391783 -3.04386724 -0.08226668 0 0 Z " fill="#49219E" transform="translate(219,517)"/>
<path d="M0 0 C0.66 0 1.32 0 2 0 C2 0.66 2 1.32 2 2 C2.721875 2.061875 3.44375 2.12375 4.1875 2.1875 C7.85956016 3.24831738 9.39427842 5.26065167 12 8 C14.16620544 9.29519995 14.16620544 9.29519995 16 10 C16 10.66 16 11.32 16 12 C16.598125 12.268125 17.19625 12.53625 17.8125 12.8125 C19.97224808 13.98493467 21.35790256 15.19369282 23 17 C22.34 17.33 21.68 17.66 21 18 C21 17.34 21 16.68 21 16 C20.01 16 19.02 16 18 16 C17.67 16.66 17.34 17.32 17 18 C12.30834891 15.02480663 8.15296809 11.68606635 4 8 C4.66 7.67 5.32 7.34 6 7 C6 6.01 6 5.02 6 4 C4.35 3.67 2.7 3.34 1 3 C0.67 2.01 0.34 1.02 0 0 Z " fill="#6546A6" transform="translate(447,242)"/>
<path d="M0 0 C0.33 0.66 0.66 1.32 1 2 C-0.98 2.33 -2.96 2.66 -5 3 C-4.79375 3.61875 -4.5875 4.2375 -4.375 4.875 C-4.25125 5.57625 -4.1275 6.2775 -4 7 C-6.12966005 9.12966005 -7.04068204 9.47624662 -9.875 10.1875 C-10.89207031 10.45626953 -10.89207031 10.45626953 -11.9296875 10.73046875 C-14 11 -14 11 -15.96875 10.45703125 C-18.64084706 9.85580941 -20.09506779 10.51848784 -22.625 11.5 C-24.9765625 12.40625 -24.9765625 12.40625 -27 13 C-27.66 12.67 -28.32 12.34 -29 12 C-26.09399739 10.74335022 -24.20395416 10 -21 10 C-21 9.34 -21 8.68 -21 8 C-20.38511719 7.87882812 -19.77023437 7.75765625 -19.13671875 7.6328125 C-18.32847656 7.46523438 -17.52023437 7.29765625 -16.6875 7.125 C-15.88699219 6.96257812 -15.08648437 6.80015625 -14.26171875 6.6328125 C-11.74698882 6.05521001 -11.74698882 6.05521001 -9 4 C-8.01 4 -7.02 4 -6 4 C-6 3.34 -6 2.68 -6 2 C-4.02 1.34 -2.04 0.68 0 0 Z " fill="#6446A0" transform="translate(423,503)"/>
<path d="M0 0 C-1.42908359 4.28725076 -4.60563317 5.55154016 -8.3125 7.75 C-8.98990234 8.17410156 -9.66730469 8.59820312 -10.36523438 9.03515625 C-11.35426758 9.62876953 -11.35426758 9.62876953 -12.36328125 10.234375 C-13.26494019 10.77916504 -13.26494019 10.77916504 -14.18481445 11.33496094 C-16.47733572 12.174884 -17.73003347 11.78156126 -20 11 C-20 10.34 -20 9.68 -20 9 C-19.05125 8.9175 -18.1025 8.835 -17.125 8.75 C-16.09375 8.5025 -15.0625 8.255 -14 8 C-13.30062468 6.68352881 -12.63270867 5.34977849 -12 4 C-9.375 3.25 -9.375 3.25 -7 3 C-7 2.34 -7 1.68 -7 1 C-4.53721199 -0.231394 -2.7204945 -0.07159196 0 0 Z " fill="#644A9E" transform="translate(438,497)"/>
<path d="M0 0 C2 2 2 2 2 5 C2.66 5 3.32 5 4 5 C4.66 9.29 5.32 13.58 6 18 C5.34 18 4.68 18 4 18 C4.33 21.63 4.66 25.26 5 29 C2.62804503 26.62804503 2.55114316 25.4978079 2 22.25 C1.445135 19.17826737 0.82047951 16.47088698 -0.1875 13.5 C-1 11 -1 11 0 9 C0.33 10.65 0.66 12.3 1 14 C1.66 14 2.32 14 3 14 C2.7834375 13.32453125 2.566875 12.6490625 2.34375 11.953125 C2.0653125 11.06109375 1.786875 10.1690625 1.5 9.25 C1.2215625 8.36828125 0.943125 7.4865625 0.65625 6.578125 C0 4 0 4 0 0 Z " fill="#7D62AF" transform="translate(498,300)"/>
<path d="M0 0 C1.48643845 0.56454632 2.96406016 1.15234889 4.4375 1.75 C5.67306641 2.23726562 5.67306641 2.23726562 6.93359375 2.734375 C9 4 9 4 9.78515625 6.140625 C9.85605469 6.75421875 9.92695313 7.3678125 10 8 C11.65 8.33 13.3 8.66 15 9 C15 9.99 15 10.98 15 12 C10.55619192 10.86726461 6.73563279 9.71682385 3 7 C3 6.34 3 5.68 3 5 C1.5459375 4.814375 1.5459375 4.814375 0.0625 4.625 C-0.948125 4.41875 -1.95875 4.2125 -3 4 C-3.33 3.34 -3.66 2.68 -4 2 C-2.68 2 -1.36 2 0 2 C0 1.34 0 0.68 0 0 Z " fill="#5E41A3" transform="translate(438,237)"/>
<path d="M0 0 C0.99 0 1.98 0 3 0 C4.7879537 6.8165735 5.23668569 12.96517526 5 20 C4.34 20.33 3.68 20.66 3 21 C2.49078672 18.81462633 1.99305563 16.62657569 1.5 14.4375 C1.2215625 13.21933594 0.943125 12.00117188 0.65625 10.74609375 C0.01362446 7.07777293 -0.11474823 3.71497397 0 0 Z " fill="#533698" transform="translate(502,318)"/>
<path d="M0 0 C1.53515625 1.17578125 1.53515625 1.17578125 3 3 C2.98880454 9.92999117 0.35310867 16.07617468 -3 22 C-4.33470263 19.33059475 -3.57333449 17.86667247 -3 15 C-3.33 14.34 -3.66 13.68 -4 13 C-2.89759851 8.59039406 -1.46829735 4.30001366 0 0 Z " fill="#8368B4" transform="translate(498,411)"/>
<path d="M0 0 C0.99 0 1.98 0 3 0 C3 0.66 3 1.32 3 2 C3.61875 2.12375 4.2375 2.2475 4.875 2.375 C7 3 7 3 9 5 C9 5.99 9 6.98 9 8 C9.99 8.33 10.98 8.66 12 9 C11.34 10.32 10.68 11.64 10 13 C5.74116333 9.95797381 2.61396757 6.5160461 0 2 C0 1.34 0 0.68 0 0 Z " fill="#56389A" transform="translate(465,258)"/>
<path d="M0 0 C1.15957207 3.47871621 0.77456651 4.34219645 -0.4375 7.6875 C-0.72496094 8.49574219 -1.01242187 9.30398438 -1.30859375 10.13671875 C-1.53675781 10.75160156 -1.76492188 11.36648438 -2 12 C-2.66 12 -3.32 12 -4 12 C-4 12.99 -4 13.98 -4 15 C-4.66 15 -5.32 15 -6 15 C-6.33 16.32 -6.66 17.64 -7 19 C-8.60080151 14.99799622 -7.29279692 11.95443764 -6 8 C-5.34 8 -4.68 8 -4 8 C-4 7.01 -4 6.02 -4 5 C-3.34 5 -2.68 5 -2 5 C-1.855625 4.360625 -1.71125 3.72125 -1.5625 3.0625 C-1 1 -1 1 0 0 Z " fill="#6B4DA7" transform="translate(495,425)"/>
<path d="M0 0 C2.64 0.66 5.28 1.32 8 2 C8 2.99 8 3.98 8 5 C8.99 5 9.98 5 11 5 C11.33 6.65 11.66 8.3 12 10 C12.99 10.33 13.98 10.66 15 11 C14.67 12.32 14.34 13.64 14 15 C13.49210937 14.40832031 12.98421875 13.81664062 12.4609375 13.20703125 C8.5437729 8.71036102 4.65182294 4.72145835 0 1 C0 0.67 0 0.34 0 0 Z " fill="#5E419B" transform="translate(411,284)"/>
<path d="M0 0 C0.33 0.66 0.66 1.32 1 2 C-4.27913453 4.08386889 -9.39538469 4.57910004 -15 5 C-14.67 3.68 -14.34 2.36 -14 1 C-4.58997722 -0.14806378 -4.58997722 -0.14806378 0 0 Z " fill="#513094" transform="translate(382,520)"/>
<path d="M0 0 C1.60725635 3.21451269 1.05748185 6.43612536 1 10 C0.01 10 -0.98 10 -2 10 C-2.66 11.65 -3.32 13.3 -4 15 C-4.66 15 -5.32 15 -6 15 C-6.33 15.99 -6.66 16.98 -7 18 C-7.33 17.34 -7.66 16.68 -8 16 C-7.67 15.34 -7.34 14.68 -7 14 C-6.34 14 -5.68 14 -5 14 C-4.9175 12.989375 -4.835 11.97875 -4.75 10.9375 C-4.15993932 6.62213084 -2.31083998 3.65261803 0 0 Z " fill="#BEADD8" transform="translate(475,417)"/>
<path d="M0 0 C0.66 0.33 1.32 0.66 2 1 C1.030625 1.4125 0.06125 1.825 -0.9375 2.25 C-4.12260099 3.64899168 -4.12260099 3.64899168 -4.875 6.1875 C-4.91625 6.785625 -4.9575 7.38375 -5 8 C-6.5778125 8.2165625 -6.5778125 8.2165625 -8.1875 8.4375 C-11.15460549 8.87526966 -14.06794366 9.37804866 -17 10 C-12.375 6 -12.375 6 -9 6 C-9 5.34 -9 4.68 -9 4 C-7.54618103 3.30300448 -6.08677047 2.61766134 -4.625 1.9375 C-3.81289062 1.55464844 -3.00078125 1.17179687 -2.1640625 0.77734375 C-1.44992187 0.52082031 -0.73578125 0.26429688 0 0 Z " fill="#7A5EAB" transform="translate(259,482)"/>
<path d="M0 0 C2.31 0 4.62 0 7 0 C6.34 2.31 5.68 4.62 5 7 C3.35 6.67 1.7 6.34 0 6 C0 4.02 0 2.04 0 0 Z " fill="#4419A7" transform="translate(210,218)"/>
<path d="M0 0 C3.16115776 1.36983503 3.9927092 1.9890638 6 5 C6.25760279 7.69452521 6.08900053 10.28548375 6 13 C4.02 11.35 2.04 9.7 0 8 C1 6 1 6 3 3 C1.68 2.67 0.36 2.34 -1 2 C-0.67 1.34 -0.34 0.68 0 0 Z " fill="#7153AD" transform="translate(474,264)"/>
<path d="M0 0 C-0.68732957 2.74931827 -1.35560222 4.53418821 -3.69140625 6.22265625 C-5.43116325 7.20324656 -7.2137611 8.10688055 -9 9 C-9.66 8.34 -10.32 7.68 -11 7 C-9.87720538 6.01830524 -8.75168527 5.03972702 -7.625 4.0625 C-6.68527344 3.24458984 -6.68527344 3.24458984 -5.7265625 2.41015625 C-3.71547429 0.76761588 -2.62199195 0 0 0 Z " fill="#6A52AA" transform="translate(459,480)"/>
<path d="M0 0 C0.66 0.33 1.32 0.66 2 1 C1.23997083 2.31878578 0.46656347 3.6298684 -0.3125 4.9375 C-0.74175781 5.66839844 -1.17101562 6.39929688 -1.61328125 7.15234375 C-3 9 -3 9 -6 10 C-6.33 10.99 -6.66 11.98 -7 13 C-8.32 12.67 -9.64 12.34 -11 12 C-10.01 11.67 -9.02 11.34 -8 11 C-7.28891701 9.68981559 -6.62746983 8.35222181 -6 7 C-4.99564028 5.71983165 -3.95309739 4.46871878 -2.875 3.25 C-2.33617187 2.63640625 -1.79734375 2.0228125 -1.2421875 1.390625 C-0.62730469 0.70226562 -0.62730469 0.70226562 0 0 Z " fill="#D0BFE5" transform="translate(453,453)"/>
<path d="M0 0 C0 0.66 0 1.32 0 2 C-4.62652069 6.1479151 -10.18193584 5.27510986 -16 5 C-16 4.34 -16 3.68 -16 3 C-13.70887834 2.49750857 -11.41708499 1.99807883 -9.125 1.5 C-7.84882813 1.2215625 -6.57265625 0.943125 -5.2578125 0.65625 C-2 0 -2 0 0 0 Z " fill="#6D53A7" transform="translate(379,476)"/>
<path d="M0 0 C0.33 0 0.66 0 1 0 C0.85879286 1.93784265 0.71187127 3.87526955 0.5625 5.8125 C0.48128906 6.89144531 0.40007812 7.97039062 0.31640625 9.08203125 C0 12 0 12 -1 15 C-1.99 15.33 -2.98 15.66 -4 16 C-4.25 10.375 -4.25 10.375 -2 7 C-1.29187186 4.67891331 -0.61975848 2.34622853 0 0 Z " fill="#614295" transform="translate(503,399)"/>
<path d="M0 0 C4.95 0.33 9.9 0.66 15 1 C15 1.99 15 2.98 15 4 C13.24908981 3.91245449 11.49920449 3.80426627 9.75 3.6875 C8.77546875 3.62949219 7.8009375 3.57148438 6.796875 3.51171875 C4 3 4 3 0 0 Z " fill="#482890" transform="translate(383,221)"/>
<path d="M0 0 C3.73647845 0.16245558 5.52538742 0.58783644 8.375 3.0625 C8.91125 3.701875 9.4475 4.34125 10 5 C6.35839192 6.21386936 5.66834531 5.6674695 2.3125 4.0625 C1.10013672 3.49208984 1.10013672 3.49208984 -0.13671875 2.91015625 C-0.75160156 2.60980469 -1.36648438 2.30945313 -2 2 C-1.34 1.34 -0.68 0.68 0 0 Z " fill="#4F2E95" transform="translate(429,234)"/>
<path d="M0 0 C0.8125 1.6875 0.8125 1.6875 1 4 C-1.3125 6.625 -1.3125 6.625 -4 9 C-4.66 9.66 -5.32 10.32 -6 11 C-8.125 10.625 -8.125 10.625 -10 10 C-9.01 9.67 -8.02 9.34 -7 9 C-6.67 8.01 -6.34 7.02 -6 6 C-5.34 6 -4.68 6 -4 6 C-3.67 5.01 -3.34 4.02 -3 3 C-2.34 3 -1.68 3 -1 3 C-0.67 2.01 -0.34 1.02 0 0 Z " fill="#DBCDED" transform="translate(464,476)"/>
<path d="M0 0 C0.66 0 1.32 0 2 0 C2.33 0.99 2.66 1.98 3 3 C1.59554165 5.2636564 -0.1967913 7.0208685 -2 9 C-2.33 8.34 -2.66 7.68 -3 7 C-4.32 7.33 -5.64 7.66 -7 8 C-6.67 7.34 -6.34 6.68 -6 6 C-5.34 6 -4.68 6 -4 6 C-3.67 5.01 -3.34 4.02 -3 3 C-2.34 3 -1.68 3 -1 3 C-0.67 2.01 -0.34 1.02 0 0 Z " fill="#735CA6" transform="translate(462,473)"/>
<path d="M0 0 C0.99 0.495 0.99 0.495 2 1 C2 2.32 2 3.64 2 5 C2.66 5 3.32 5 4 5 C4.36372387 7.24847481 4.71564096 9.49886188 5.0625 11.75 C5.25972656 13.00296875 5.45695312 14.2559375 5.66015625 15.546875 C5.95080818 18.50016589 5.98935727 20.2602414 5 23 C3.21204559 19.42409118 3.13666707 15.29098337 2.59765625 11.359375 C2.01527754 8.08587375 1.08326842 5.13649268 0 2 C0 1.34 0 0.68 0 0 Z " fill="#AB95CF" transform="translate(479,318)"/>
<path d="M0 0 C2.96175123 0.61277612 4.38058783 1.25372522 7 3 C4.50494038 5.49505962 3.32671112 5.35948376 -0.125 5.625 C-1.03507812 5.69976563 -1.94515625 5.77453125 -2.8828125 5.8515625 C-3.93082031 5.92503906 -3.93082031 5.92503906 -5 6 C-3 4 -3 4 0 3 C0 2.01 0 1.02 0 0 Z " fill="#7F60B1" transform="translate(382,518)"/>
<path d="M0 0 C0.66 0.66 1.32 1.32 2 2 C0.92892883 2.86949317 -0.15745944 3.72014205 -1.25 4.5625 C-1.85328125 5.03816406 -2.4565625 5.51382812 -3.078125 6.00390625 C-5 7 -5 7 -7.234375 6.65234375 C-7.81703125 6.43707031 -8.3996875 6.22179687 -9 6 C-9 5.34 -9 4.68 -9 4 C-7.02 3.67 -5.04 3.34 -3 3 C-3 2.34 -3 1.68 -3 1 C-2.01 0.67 -1.02 0.34 0 0 Z " fill="#593D9A" transform="translate(427,502)"/>
<path d="M0 0 C-0.33 0.99 -0.66 1.98 -1 3 C-2.70703125 3.765625 -2.70703125 3.765625 -4.8125 4.25 C-5.49957031 4.42015625 -6.18664062 4.5903125 -6.89453125 4.765625 C-9.19499821 5.02170666 -10.80629727 4.69015367 -13 4 C-4.738041 -0.59225513 -4.738041 -0.59225513 0 0 Z " fill="#4E2F93" transform="translate(410,512)"/>
<path d="M0 0 C2.45634954 4.73724554 4.31057116 8.56500474 4 14 C3.34 14 2.68 14 2 14 C-0.24281523 8.79666866 -1.55577239 5.65735415 0 0 Z " fill="#452890" transform="translate(497,300)"/>
<path d="M0 0 C0.66 0 1.32 0 2 0 C1.25 7.625 1.25 7.625 -1 11 C-1.70812814 13.32108669 -2.38024152 15.65377147 -3 18 C-4.52150158 14.95699684 -4.23899393 12.345915 -4 9 C-3.01 8.34 -2.02 7.68 -1 7 C-0.26393501 3.43230448 -0.26393501 3.43230448 0 0 Z " fill="#7F64B4" transform="translate(480,398)"/>
<path d="M0 0 C0.66 0 1.32 0 2 0 C2 0.66 2 1.32 2 2 C2.78375 2.0825 3.5675 2.165 4.375 2.25 C7 3 7 3 8.375 4.9375 C9 7 9 7 8 9 C8.66 9.33 9.32 9.66 10 10 C9.67 10.66 9.34 11.32 9 12 C7.35 10.35 5.7 8.7 4 7 C4.66 7 5.32 7 6 7 C6 6.01 6 5.02 6 4 C4.35 3.67 2.7 3.34 1 3 C0.67 2.01 0.34 1.02 0 0 Z " fill="#7154AD" transform="translate(447,242)"/>
<path d="M0 0 C0.99 0.33 1.98 0.66 3 1 C2.8125 3.375 2.8125 3.375 2 6 C-0.5625 7.3125 -0.5625 7.3125 -3 8 C-3.33 7.34 -3.66 6.68 -4 6 C-3.67 5.01 -3.34 4.02 -3 3 C-2.34 3 -1.68 3 -1 3 C-0.67 2.01 -0.34 1.02 0 0 Z " fill="#4F26A5" transform="translate(249,247)"/>
<path d="M0 0 C0.33 0.66 0.66 1.32 1 2 C-0.98 2.33 -2.96 2.66 -5 3 C-4.67 4.32 -4.34 5.64 -4 7 C-5.98 7.99 -5.98 7.99 -8 9 C-8 8.01 -8 7.02 -8 6 C-8.66 5.67 -9.32 5.34 -10 5 C-8.68 4.67 -7.36 4.34 -6 4 C-6 3.34 -6 2.68 -6 2 C-4.02 1.34 -2.04 0.68 0 0 Z " fill="#957CC4" transform="translate(423,503)"/>
<path d="M0 0 C-2.06756277 2.7972908 -3.14440371 3.02692273 -6.6875 3.6875 C-7.780625 3.790625 -8.87375 3.89375 -10 4 C-10 3.01 -10 2.02 -10 1 C-3.71428571 -1.42857143 -3.71428571 -1.42857143 0 0 Z " fill="#4E2B97" transform="translate(246,493)"/>
<path d="M0 0 C0.99 0.99 1.98 1.98 3 3 C3.70125 3.61875 4.4025 4.2375 5.125 4.875 C7.25165829 7.28521273 7.64985197 8.84866776 8 12 C7.34 11.67 6.68 11.34 6 11 C6 10.34 6 9.68 6 9 C4.68 9 3.36 9 2 9 C1.34 6.03 0.68 3.06 0 0 Z " fill="#694CA7" transform="translate(465,292)"/>
<path d="M0 0 C1.32 0 2.64 0 4 0 C3.67 1.65 3.34 3.3 3 5 C4.32 5 5.64 5 7 5 C7 5.66 7 6.32 7 7 C4.69 6.34 2.38 5.68 0 5 C0 3.35 0 1.7 0 0 Z " fill="#452292" transform="translate(233,242)"/>
<path d="M0 0 C2 2 2 2 2 5 C2.66 5 3.32 5 4 5 C4.33 7.64 4.66 10.28 5 13 C4.34 13 3.68 13 3 13 C2.49242138 11.58603098 1.99425075 10.16868271 1.5 8.75 C1.08234375 7.56664062 1.08234375 7.56664062 0.65625 6.359375 C0 4 0 4 0 0 Z " fill="#8269B7" transform="translate(498,300)"/>
<path d="M0 0 C0.99 0 1.98 0 3 0 C4 3 4 3 3 6 C3.99 6 4.98 6 6 6 C6 7.32 6 8.64 6 10 C5.34 10 4.68 10 4 10 C1.6791945 6.7508723 0.56302958 3.94120709 0 0 Z " fill="#492792" transform="translate(486,283)"/>
<path d="M0 0 C0.66 0 1.32 0 2 0 C2 0.66 2 1.32 2 2 C3.65 2.33 5.3 2.66 7 3 C7 3.99 7 4.98 7 6 C4.69 5.34 2.38 4.68 0 4 C0 2.68 0 1.36 0 0 Z " fill="#512F95" transform="translate(446,243)"/>
<path d="M0 0 C0.66 0.99 1.32 1.98 2 3 C-7.41002278 3.18451025 -7.41002278 3.18451025 -12 2 C-12 1.67 -12 1.34 -12 1 C-3.25413223 -0.37190083 -3.25413223 -0.37190083 0 0 Z " fill="#522E96" transform="translate(353,523)"/>
<path d="M0 0 C0.33 0.99 0.66 1.98 1 3 C-0.9375 5.6875 -0.9375 5.6875 -3 8 C-4.32 7.67 -5.64 7.34 -7 7 C-4.69 4.69 -2.38 2.38 0 0 Z " fill="#8269B2" transform="translate(422,449)"/>
<path d="M0 0 C3.36591866 1.44253657 5.51047079 3.33264727 8 6 C7.01 6.495 7.01 6.495 6 7 C5.608125 6.525625 5.21625 6.05125 4.8125 5.5625 C2.59191626 3.64820367 0.86624291 3.38733012 -2 3 C-1.34 2.01 -0.68 1.02 0 0 Z " fill="#5B3C9F" transform="translate(448,274)"/>
<path d="M0 0 C0.66 0 1.32 0 2 0 C2 0.66 2 1.32 2 2 C2.66 2 3.32 2 4 2 C4 2.66 4 3.32 4 4 C-0.38461538 7 -0.38461538 7 -3 7 C-3 6.34 -3 5.68 -3 5 C-2.34 5 -1.68 5 -1 5 C-0.67 3.35 -0.34 1.7 0 0 Z " fill="#4A2596" transform="translate(417,478)"/>
<path d="M0 0 C0.33 0.66 0.66 1.32 1 2 C-1.19566645 8.47143795 -1.19566645 8.47143795 -4.1875 10.4375 C-5.0846875 10.7159375 -5.0846875 10.7159375 -6 11 C-4.54955729 6.89041233 -2.48889248 3.56741255 0 0 Z " fill="#BAA7DB" transform="translate(466,435)"/>
<path d="M0 0 C0.66 0 1.32 0 2 0 C1.67 1.98 1.34 3.96 1 6 C0.34 6 -0.32 6 -1 6 C-1.33 7.32 -1.66 8.64 -2 10 C-2.93423645 6.98968256 -3.04449911 6.13349732 -2 3 C-1.34 3 -0.68 3 0 3 C0 2.01 0 1.02 0 0 Z " fill="#543690" transform="translate(490,434)"/>
<path d="M0 0 C2.67455183 1.33727591 2.98881385 2.73288323 4.1875 5.4375 C4.55230469 6.24058594 4.91710937 7.04367187 5.29296875 7.87109375 C6 10 6 10 5 12 C4.54625 11.195625 4.0925 10.39125 3.625 9.5625 C2.25274335 6.91143428 2.25274335 6.91143428 0 6 C0 4.02 0 2.04 0 0 Z " fill="#BDAEDA" transform="translate(491,296)"/>
<path d="M0 0 C1.32 0 2.64 0 4 0 C4.66 0.99 5.32 1.98 6 3 C7.32 3 8.64 3 10 3 C10.33 4.32 10.66 5.64 11 7 C7.65750371 6.40312566 5.53563658 5.26396123 3 3 C3 2.34 3 1.68 3 1 C2.01 0.67 1.02 0.34 0 0 Z " fill="#DDCDEA" transform="translate(451,244)"/>
<path d="M0 0 C1.98 0 3.96 0 6 0 C2.98552165 2.57075841 0.64020229 3.52207066 -3.25 4.1875 C-4.58804687 4.42533203 -4.58804687 4.42533203 -5.953125 4.66796875 C-6.96632813 4.83232422 -6.96632813 4.83232422 -8 5 C-7.67 4.34 -7.34 3.68 -7 3 C-4.67843403 2.59270772 -2.3431213 2.25561323 0 2 C0 1.34 0 0.68 0 0 Z " fill="#AE9BCF" transform="translate(402,511)"/>
<path d="M0 0 C0.33 1.32 0.66 2.64 1 4 C-1.31 4 -3.62 4 -6 4 C-6 3.01 -6 2.02 -6 1 C-3.92446352 0.4465236 -2.15634036 0 0 0 Z " fill="#F9F7F2" transform="translate(407,507)"/>
<path d="M0 0 C0.33 0.66 0.66 1.32 1 2 C0.01 2 -0.98 2 -2 2 C-2.33 2.99 -2.66 3.98 -3 5 C-4.98 5 -6.96 5 -9 5 C-6.47043472 1.9083091 -3.77545388 1.09068668 0 0 Z " fill="#4A2693" transform="translate(263,482)"/>
<path d="M0 0 C0.33 0.99 0.66 1.98 1 3 C-0.3125 5.1875 -0.3125 5.1875 -2 7 C-2.66 7 -3.32 7 -4 7 C-3.6875 4.625 -3.6875 4.625 -3 2 C-2.01 1.34 -1.02 0.68 0 0 Z " fill="#5B4097" transform="translate(476,459)"/>
<path d="M0 0 C1.60725635 3.21451269 1.05748185 6.43612536 1 10 C0.01 10 -0.98 10 -2 10 C-1.85950482 8.52031676 -1.71245174 7.04125484 -1.5625 5.5625 C-1.48128906 4.73878906 -1.40007812 3.91507812 -1.31640625 3.06640625 C-1 1 -1 1 0 0 Z " fill="#D7CCE3" transform="translate(475,417)"/>
<path d="M0 0 C1.65 0 3.3 0 5 0 C4.6875 1.875 4.6875 1.875 4 4 C3.01 4.66 2.02 5.32 1 6 C0.67 4.02 0.34 2.04 0 0 Z " fill="#441E95" transform="translate(441,322)"/>
<path d="M0 0 C0.66 0.33 1.32 0.66 2 1 C0.68 2.65 -0.64 4.3 -2 6 C-3.32 5.67 -4.64 5.34 -6 5 C-4.6875 3.5 -4.6875 3.5 -3 2 C-2.01 2 -1.02 2 0 2 C0 1.34 0 0.68 0 0 Z " fill="#D5C9E4" transform="translate(446,492)"/>
<path d="M0 0 C0 0.66 0 1.32 0 2 C-2.64 2.66 -5.28 3.32 -8 4 C-8 3.01 -8 2.02 -8 1 C-5.07175348 0.02391783 -3.04386724 -0.08226668 0 0 Z " fill="#492D94" transform="translate(397,492)"/>
<path d="M0 0 C0.33 1.32 0.66 2.64 1 4 C0.34 4 -0.32 4 -1 4 C-0.79375 4.763125 -0.5875 5.52625 -0.375 6.3125 C0 9 0 9 -2 12 C-2.66 11.67 -3.32 11.34 -4 11 C-3.34 8.36 -2.68 5.72 -2 3 C-1.34 3 -0.68 3 0 3 C0 2.01 0 1.02 0 0 Z " fill="#795CB0" transform="translate(440,419)"/>
<path d="M0 0 C2.64 0.33 5.28 0.66 8 1 C8 1.99 8 2.98 8 4 C5.64828869 3.40138258 3.3140622 2.73075648 1 2 C0.67 1.34 0.34 0.68 0 0 Z " fill="#482490" transform="translate(418,230)"/>
<path d="M0 0 C0.99 0 1.98 0 3 0 C3 2.31 3 4.62 3 7 C2.01 6.67 1.02 6.34 0 6 C0 4.02 0 2.04 0 0 Z " fill="#421F93" transform="translate(210,218)"/>
<path d="M0 0 C0.66 0.99 1.32 1.98 2 3 C1.67 3.99 1.34 4.98 1 6 C0.67 5.34 0.34 4.68 0 4 C-0.66 4 -1.32 4 -2 4 C-2.33 5.32 -2.66 6.64 -3 8 C-3.33 7.34 -3.66 6.68 -4 6 C-3.67 5.01 -3.34 4.02 -3 3 C-2.34 3 -1.68 3 -1 3 C-0.67 2.01 -0.34 1.02 0 0 Z " fill="#7B64B3" transform="translate(486,441)"/>
<path d="M0 0 C0.66 0 1.32 0 2 0 C2.6875 1.8125 2.6875 1.8125 3 4 C1.5625 5.75 1.5625 5.75 0 7 C-0.66 5.68 -1.32 4.36 -2 3 C-1.34 3 -0.68 3 0 3 C0 2.01 0 1.02 0 0 Z " fill="#5A39A2" transform="translate(495,296)"/>
<path d="M0 0 C-0.66 1.65 -1.32 3.3 -2 5 C-3.32 4.67 -4.64 4.34 -6 4 C-2.25 0 -2.25 0 0 0 Z " fill="#523991" transform="translate(459,480)"/>
<path d="M0 0 C0.99 0.495 0.99 0.495 2 1 C2 1.66 2 2.32 2 3 C2.66 3 3.32 3 4 3 C3.67 4.32 3.34 5.64 3 7 C2.01 6.67 1.02 6.34 0 6 C0 4.02 0 2.04 0 0 Z " fill="#7C62B7" transform="translate(489,283)"/>
<path d="M0 0 C0.66 0 1.32 0 2 0 C2 0.66 2 1.32 2 2 C2.99 2.33 3.98 2.66 5 3 C4.34 4.32 3.68 5.64 3 7 C1.5 5.75 1.5 5.75 0 4 C0 2.68 0 1.36 0 0 Z " fill="#49298D" transform="translate(472,264)"/>
</svg>
